<svg width="14" height="14" viewBox="0 0 14 14" fill="none" xmlns="http://www.w3.org/2000/svg">
<g clip-path="url(#clip0)">
<path d="M5.79705 8.2031C4.46077 6.86683 4.15905 5.53055 4.09098 4.99517C4.07196 4.84714 4.1229 4.69868 4.22881 4.59352L5.31019 3.51262C5.46926 3.35365 5.49749 3.10589 5.37826 2.91521L3.6565 0.241689C3.52459 0.0305424 3.25374 -0.0456626 3.03108 0.0657237L0.26705 1.36748C0.0869951 1.45614 -0.0189107 1.64745 0.00153257 1.8471C0.14636 3.22297 0.746188 6.60517 4.06998 9.92921C7.39377 13.2532 10.7755 13.8528 12.1521 13.9977C12.3517 14.0181 12.543 13.9122 12.6317 13.7321L13.9335 10.9681C14.0444 10.7459 13.9687 10.4758 13.7585 10.3437L11.0849 8.62238C10.8944 8.50302 10.6466 8.53105 10.4875 8.68997L9.40664 9.77135C9.30147 9.87725 9.15302 9.92819 9.00498 9.90917C8.4696 9.8411 7.13333 9.53938 5.79705 8.2031Z" fill="#262626"/>
<path d="M11.1028 7.48254C10.8362 7.48254 10.6201 7.2664 10.6201 6.99978C10.6178 5.00107 8.99807 3.38135 6.99936 3.37909C6.73274 3.37909 6.5166 3.16295 6.5166 2.89633C6.5166 2.62971 6.73274 2.41357 6.99936 2.41357C9.53109 2.41637 11.5828 4.46805 11.5856 6.99978C11.5856 7.2664 11.3694 7.48254 11.1028 7.48254Z" fill="#262626"/>
<path d="M13.5166 7.48276C13.25 7.48276 13.0338 7.26662 13.0338 7C13.0301 3.66879 10.3306 0.969242 6.99936 0.965517C6.73274 0.965517 6.5166 0.749379 6.5166 0.482759C6.5166 0.216138 6.73274 0 6.99936 0C10.8636 0.00425693 13.9951 3.13577 13.9994 7C13.9994 7.12804 13.9485 7.25083 13.858 7.34136C13.7674 7.4319 13.6446 7.48276 13.5166 7.48276Z" fill="#262626"/>
</g>
<defs>
<clipPath id="clip0">
<rect width="14" height="14" fill="white"/>
</clipPath>
</defs>
</svg>
