<svg width="16" height="16" viewBox="0 0 16 16" fill="none" xmlns="http://www.w3.org/2000/svg">
<g clip-path="url(#clip0)">
<path d="M9.59995 0H6.39955C3.31127 0 0.798828 2.51244 0.798828 5.60072V8.00103C0.798828 10.1692 2.04927 12.1368 3.99923 13.0623V15.7353C3.99923 15.9674 4.28958 16.0888 4.45452 15.9239L6.77667 13.6018H9.59992C12.6882 13.6018 15.2006 11.0893 15.2006 8.00103V5.60072C15.2006 2.51244 12.6882 0 9.59995 0Z" fill="#523494"/>
<path d="M4.79933 13.0623C2.84936 12.1367 1.59892 10.1692 1.59892 8.001V5.60069C1.59892 2.51244 4.11139 0 7.19964 0H6.39955C3.31127 0 0.798828 2.51244 0.798828 5.60072V8.00103C0.798828 10.1692 2.04927 12.1368 3.99923 13.0623V15.7353C3.99923 15.9674 4.28958 16.0888 4.45452 15.9239L4.79933 15.5791V13.0623Z" fill="#523494"/>
<path d="M12.0268 9.94095L11.787 8.64202C11.7671 8.5347 11.684 8.4503 11.577 8.42889L9.69116 8.05173C9.60357 8.0343 9.51332 8.06164 9.45022 8.12467L8.68407 8.89086C7.39319 8.31245 6.67676 7.59445 6.04638 6.24817L6.81007 5.48452C6.8731 5.42145 6.90047 5.33102 6.88301 5.24358L6.50585 3.3577C6.48444 3.25073 6.40004 3.16755 6.29272 3.14774L4.99379 2.90798C4.95822 2.90145 4.9216 2.90214 4.88629 2.91017C4.54332 2.98808 4.23038 3.16089 3.98129 3.41005C3.54997 3.84136 3.38513 4.47073 3.50463 5.23014C3.70522 6.50533 4.32997 8.27995 5.48263 9.43723L5.49838 9.45286C6.65476 10.6047 8.42941 11.2295 9.70466 11.4301C9.86532 11.4555 10.02 11.468 10.1684 11.468C10.7214 11.468 11.1847 11.2935 11.5248 10.9535C11.7739 10.7043 11.9468 10.3914 12.0247 10.0485C12.0326 10.0131 12.0333 9.97658 12.0268 9.94095Z" fill="white"/>
<path d="M6.54984 5.74446L6.81059 5.48368L6.81087 5.4834L6.5498 5.74443L6.54984 5.74446Z" fill="#E5E5E5"/>
<path d="M9.45081 8.12414L9.1875 8.38745L9.18754 8.3875L9.45085 8.12419L9.45081 8.12414Z" fill="#E5E5E5"/>
<path d="M10.6713 10.9644C10.523 10.9644 10.3683 10.9519 10.2076 10.9265C8.93238 10.7259 7.15772 10.1011 6.00132 8.94926L5.98557 8.93364C4.83291 7.77636 4.20816 6.00173 4.00757 4.72655C3.91104 4.11301 4.00029 3.58442 4.26557 3.17651C4.16397 3.24429 4.06863 3.32205 3.98129 3.40939C3.54997 3.8407 3.38513 4.47008 3.50463 5.22948C3.70522 6.50467 4.32997 8.2793 5.48263 9.43658L5.49838 9.4522C6.65476 10.604 8.42941 11.2289 9.70466 11.4295C9.86532 11.4548 10.02 11.4673 10.1684 11.4673C10.7214 11.4673 11.1847 11.2929 11.5248 10.9528C11.6121 10.8655 11.6899 10.7701 11.7577 10.6685C11.4565 10.8644 11.0896 10.9644 10.6713 10.9644Z" fill="#D0CCC9"/>
<path d="M8.53329 4.53394C8.38601 4.53394 8.2666 4.65334 8.2666 4.80062C8.2666 4.9479 8.38601 5.06731 8.53329 5.06731C9.12154 5.06731 9.6001 5.54587 9.6001 6.13412C9.6001 6.27944 9.72148 6.40081 9.86679 6.40081C10.0121 6.40081 10.1335 6.27944 10.1335 6.13412C10.1335 5.25175 9.41566 4.53394 8.53329 4.53394Z" fill="white"/>
<path d="M8.53344 3.46802C8.43479 3.46802 8.33523 3.47349 8.23748 3.48427C8.09107 3.50042 7.98548 3.63221 8.00163 3.77864C8.01779 3.92508 8.14985 4.03039 8.29601 4.01449C8.37438 4.00583 8.45426 4.00142 8.53344 4.00142C9.70991 4.00142 10.667 4.95855 10.667 6.13502C10.667 6.21424 10.6626 6.29411 10.654 6.37249C10.638 6.51689 10.7453 6.65095 10.8898 6.66686C11.0342 6.68277 11.1682 6.57549 11.1842 6.43102C11.195 6.33327 11.2004 6.23371 11.2004 6.13502C11.2004 4.66446 10.004 3.46802 8.53344 3.46802Z" fill="white"/>
<path d="M8.53343 2.40088C8.43812 2.40088 8.34159 2.4045 8.24659 2.41172C8.09971 2.42285 7.98965 2.55097 8.00077 2.69782C8.01187 2.84469 8.14043 2.95475 8.28687 2.94363C8.36852 2.93741 8.45149 2.93429 8.53343 2.93429C10.2981 2.93429 11.7338 4.36997 11.7338 6.13469C11.7338 6.38438 11.705 6.63294 11.6482 6.87344C11.6156 7.01125 11.7005 7.1545 11.8371 7.19194C11.9809 7.23132 12.1331 7.14116 12.1673 6.99613C12.2336 6.71547 12.2672 6.42566 12.2672 6.13469C12.2672 4.07585 10.5923 2.40088 8.53343 2.40088Z" fill="white"/>
</g>
<defs>
<clipPath id="clip0">
<rect width="16" height="16" fill="white"/>
</clipPath>
</defs>
</svg>
