<svg width="15" height="15" viewBox="0 0 15 15" fill="none" xmlns="http://www.w3.org/2000/svg">
<g clip-path="url(#clip0)">
<path d="M7.49598 0.00488642C3.35629 0.0057648 0.00111846 3.36237 0.00199684 7.50206C0.00228964 8.9355 0.413638 10.3388 1.1872 11.5456L0.0210285 14.5713C-0.0410734 14.7322 0.0390355 14.913 0.199956 14.9751C0.23594 14.989 0.27415 14.9961 0.312711 14.996C0.348491 14.9962 0.384007 14.9901 0.417649 14.9779L3.54081 13.863C7.05471 16.0515 11.6774 14.977 13.8659 11.4631C16.0544 7.94913 14.9799 3.32645 11.466 1.13798C10.2748 0.396091 8.89932 0.00351028 7.49598 0.00488642Z" fill="#00CD21"/>
<path d="M11.0694 8.78083C11.0694 8.78083 10.3042 8.40605 9.82515 8.15621C9.28298 7.877 8.64586 8.39982 8.34603 8.69715C7.8794 8.5179 7.45321 8.24736 7.0924 7.90136C6.74634 7.54061 6.4758 7.11442 6.29661 6.64773C6.59394 6.34729 7.1155 5.71078 6.83755 5.16861C6.59081 4.6889 6.21293 3.92435 6.21293 3.92374C6.1599 3.81851 6.05218 3.75207 5.93433 3.75195H5.30971C4.40006 3.90907 3.73866 4.70278 3.74815 5.62584C3.74815 6.6065 4.92182 8.49041 5.71324 9.28242C6.50467 10.0744 8.38855 11.2475 9.36982 11.2475C10.2929 11.257 11.0866 10.5956 11.2437 9.68595V9.06133C11.2438 8.94222 11.1762 8.83345 11.0694 8.78083Z" fill="#FFFFFF"/>
</g>
<defs>
<clipPath id="clip0">
<rect width="15" height="15" fill="white"/>
</clipPath>
</defs>
</svg>
