<svg width="185" height="48" viewBox="0 0 185 48" fill="none" xmlns="http://www.w3.org/2000/svg">
<path d="M58.2246 4.46925C58.2772 4.36179 58.2954 4.24073 58.2768 4.12255C58.2581 4.00438 58.2035 3.89483 58.1204 3.8088C58.0372 3.72277 57.9296 3.66444 57.8122 3.64176C57.6947 3.61907 57.5731 3.63313 57.4639 3.68201L57.1927 3.6357L56.9281 3.59601C56.894 3.50289 56.8783 3.40404 56.8818 3.30493C57.0041 3.28108 57.1278 3.26561 57.2522 3.25862L58.3569 3.32477C58.4892 3.32477 58.8531 3.32477 59.455 3.32477C59.6998 3.32477 60.2091 3.32477 60.9831 3.23877C60.9786 3.34115 60.9653 3.44295 60.9434 3.54307C60.6977 3.63643 60.4387 3.69004 60.1761 3.70186C59.9902 3.69836 59.807 3.74644 59.6469 3.84078C59.5561 4.03231 59.5217 4.24567 59.5476 4.45601V6.44065V7.22126V8.68327V10.1122V11.3493C59.5021 12.0127 59.5376 12.6792 59.6535 13.334C59.7196 13.42 59.9445 13.4927 60.315 13.5589C60.563 13.6091 60.8064 13.6799 61.0426 13.7706C61.0824 13.7909 61.1154 13.8224 61.1377 13.8611C61.1601 13.8999 61.1707 13.9442 61.1683 13.9889C61.1646 14.024 61.1533 14.0578 61.1352 14.0881H61.0955H60.9831C60.3566 13.9753 59.7211 13.9199 59.0846 13.9227C58.2384 13.9295 57.3939 13.998 56.5577 14.1278C56.5523 14.0728 56.5523 14.0174 56.5577 13.9624C56.5524 13.9118 56.5524 13.8608 56.5577 13.8102C56.8164 13.6853 57.0976 13.6133 57.3845 13.5985C57.9336 13.5456 58.2048 13.3075 58.2048 12.8907V11.3758V11.0119V5.10433L54.9965 8.71638C54.7253 9.04054 54.388 9.43082 53.9712 9.88729C53.5545 10.3438 53.1179 10.8796 52.6482 11.4684L51.9537 12.3483C51.9413 12.619 51.9635 12.8902 52.0198 13.1553C52.0661 13.3075 52.119 13.4001 52.1852 13.4332C52.3651 13.4972 52.5514 13.5416 52.7408 13.5655C52.9914 13.614 53.2371 13.6848 53.4751 13.7772C53.5144 13.7982 53.5469 13.8298 53.5692 13.8684C53.5914 13.9069 53.6023 13.951 53.6008 13.9955C53.6052 14.0284 53.6052 14.0618 53.6008 14.0947H53.5478H53.4486C52.82 13.9816 52.1823 13.9262 51.5435 13.9293C50.6973 13.9356 49.8527 14.0042 49.0166 14.1344C49.0166 14.0617 49.0166 14.0087 49.0166 13.9691C49.0166 13.9294 49.0166 13.883 49.0166 13.8169C49.2742 13.6972 49.553 13.6297 49.8369 13.6184C50.3925 13.5655 50.6703 13.3273 50.6703 12.9106V11.7065V11.3956V11.0318V10.1784V9.17943V6.30835C50.6703 5.3888 50.6703 4.78017 50.6703 4.47586C50.6798 4.28904 50.662 4.10184 50.6174 3.92016C50.5963 3.86822 50.5622 3.82264 50.5182 3.78786C50.3197 3.73209 50.1155 3.69879 49.9096 3.68862L49.6384 3.64232C49.5473 3.63475 49.4567 3.62148 49.3672 3.60261C49.3388 3.50827 49.3254 3.41006 49.3275 3.31155C49.4475 3.28711 49.5691 3.27163 49.6913 3.26524L50.7894 3.3314C50.9217 3.3314 51.2922 3.3314 51.8875 3.3314C52.1323 3.3314 52.6416 3.33139 53.4156 3.24539C53.4195 3.3479 53.4084 3.45043 53.3825 3.5497C53.1389 3.64247 52.8821 3.69606 52.6218 3.70846C52.4305 3.70176 52.2416 3.75245 52.0793 3.854C52.001 4.04677 51.9693 4.2553 51.9867 4.46263V4.85956V6.42742V7.20804V10.099V11.6867L53.5412 9.81453L54.7121 8.49144L56.2666 6.73835C56.9876 5.95773 57.6359 5.20357 58.2246 4.46925Z" fill="black"/>
<path d="M61.7657 18.5185C61.7627 18.4602 61.7627 18.4018 61.7657 18.3436C61.7604 18.2944 61.7604 18.2448 61.7657 18.1956L62.6151 18.0207C62.7391 17.9606 62.8514 17.8786 62.9469 17.7786C62.9732 17.6776 62.9865 17.5736 62.9867 17.4691C62.9867 16.5723 62.9646 14.9042 62.9204 12.4649V9.33716C62.9304 9.02272 62.8992 8.70831 62.8275 8.40221C62.8008 8.33775 62.7572 8.28193 62.7014 8.24078C62.4445 8.08589 62.1564 7.99165 61.8586 7.96503L61.9117 7.70269C62.3336 7.5355 62.74 7.33067 63.1261 7.0906C63.3544 6.92261 63.5521 6.71546 63.71 6.47852H63.8162C63.8742 6.48656 63.9303 6.50476 63.9821 6.53232C63.9821 6.88881 63.9821 7.12424 63.9821 7.23858V8.18023C64.3744 7.87602 64.8109 7.63551 65.2761 7.46727C65.7269 7.31133 66.2 7.23179 66.6763 7.23185C67.085 7.22294 67.491 7.30093 67.8682 7.46081C68.2454 7.62068 68.5853 7.85889 68.8661 8.16007C69.1659 8.47674 69.3998 8.85134 69.5537 9.26158C69.7076 9.67182 69.7784 10.1093 69.7619 10.5479C69.7734 11.2305 69.5989 11.9031 69.2576 12.4918C68.9374 13.0542 68.456 13.5045 67.8774 13.7832C67.3232 14.0573 66.7155 14.2021 66.099 14.2069C65.4977 14.1873 64.9065 14.0455 64.3604 13.7899L64.075 13.6689C64.075 14.1262 64.075 14.5298 64.075 14.8863C64.0237 15.8753 64.0726 16.867 64.221 17.8458C64.2741 17.958 64.4333 18.0252 64.6988 18.0476C65.0082 18.049 65.3138 18.1178 65.5946 18.2494C65.6427 18.2842 65.6825 18.3295 65.7112 18.3818C65.7399 18.4342 65.7568 18.4923 65.7605 18.5521H64.9244H64.1679H62.9005L61.7657 18.5185ZM63.9689 8.74525C63.9689 8.81924 63.9689 8.89324 63.9689 8.96723C63.9689 10.9985 63.9888 12.1353 64.0286 12.3774C64.0586 12.7434 64.2275 13.0834 64.4997 13.3258C64.9588 13.645 65.5102 13.799 66.0658 13.763C66.3964 13.7697 66.7248 13.7074 67.0307 13.5801C67.3366 13.4529 67.6135 13.2633 67.8442 13.0231C68.086 12.7695 68.2747 12.4689 68.399 12.1395C68.5233 11.8101 68.5806 11.4586 68.5675 11.1062C68.6092 10.2843 68.333 9.47834 67.7977 8.85958C67.5413 8.58847 67.2316 8.37482 66.8888 8.23233C66.5459 8.08984 66.1774 8.02168 65.807 8.03227C65.4718 8.02935 65.139 8.08863 64.8249 8.20716C64.507 8.32684 64.2159 8.50979 63.9689 8.74525Z" fill="black"/>
<path d="M73.2672 12.2726L76.9032 8.48183C76.9099 8.31491 76.8643 8.15013 76.7731 8.01129C76.5884 7.89771 76.386 7.81704 76.1747 7.77272C76.0013 7.72655 75.8317 7.66671 75.6674 7.59377C75.6598 7.55885 75.6598 7.52266 75.6674 7.48773C75.6688 7.44185 75.6848 7.39766 75.7129 7.36182C75.9276 7.36182 76.2007 7.36181 76.5455 7.40158C77.0008 7.40158 77.3065 7.45461 77.4561 7.45461C78.0553 7.4688 78.6548 7.44666 79.2514 7.38833H79.375C79.418 7.38066 79.462 7.38066 79.5051 7.38833C79.5257 7.41532 79.5391 7.44727 79.5441 7.4811C79.5441 7.61364 79.3815 7.71967 79.0432 7.78595L78.757 7.83897C78.5882 7.86255 78.4238 7.91171 78.2692 7.98479C78.2041 7.98479 78.1521 8.11733 78.1131 8.26976C78.0518 8.57484 78.0278 8.88645 78.0415 9.19754V13.0148C78.0305 13.095 78.0364 13.1767 78.0589 13.2544C78.0813 13.3321 78.1198 13.4041 78.1716 13.4654C78.3594 13.5839 78.5664 13.6669 78.783 13.7107C78.9509 13.7533 79.116 13.8064 79.2774 13.8697C79.2847 13.9024 79.2847 13.9364 79.2774 13.9691C79.2723 14.0173 79.2543 14.0632 79.2254 14.1017L78.3993 14.0553C77.944 14.0155 77.6382 13.9956 77.4886 13.9956C76.8895 13.981 76.2899 14.0032 75.6934 14.0619H75.5698C75.5245 14.0691 75.4785 14.0691 75.4332 14.0619C75.4093 14.0344 75.3955 13.9992 75.3942 13.9625C75.3942 13.8366 75.5633 13.7438 75.908 13.6842L76.1942 13.6311C76.3795 13.6063 76.5583 13.5456 76.7211 13.4522C76.8162 13.3113 76.8703 13.1459 76.8772 12.975C76.9219 12.4351 76.9393 11.8931 76.9293 11.3514V8.95897L73.2932 12.7961C73.2674 13.0213 73.2988 13.2495 73.3843 13.4588C73.4363 13.545 73.651 13.6377 74.0347 13.7438C74.2011 13.784 74.3642 13.8372 74.5226 13.9029C74.5298 13.9356 74.5298 13.9695 74.5226 14.0022C74.5199 14.0489 74.5066 14.0943 74.4835 14.1348L73.651 14.0884C73.1956 14.0486 72.8964 14.0288 72.7403 14.0288C72.1411 14.0146 71.5417 14.0367 70.9451 14.095H70.8215C70.7783 14.1016 70.7345 14.1016 70.6914 14.095C70.6675 14.0675 70.6537 14.0324 70.6523 13.9956C70.6523 13.8675 70.8215 13.7747 71.1597 13.7173L71.4459 13.6643C71.6444 13.6407 71.8343 13.5679 71.9988 13.4522C72.1071 13.2641 72.157 13.0469 72.1419 12.8293C72.1419 12.4913 72.1419 11.8286 72.1419 10.8411V8.50169C72.153 8.41994 72.1465 8.3367 72.1229 8.25774C72.0993 8.17879 72.0592 8.10602 72.0053 8.04442C71.8206 7.92943 71.6183 7.84656 71.4069 7.79921C71.1532 7.72631 70.9906 7.6733 70.906 7.64017C70.901 7.60501 70.901 7.56929 70.906 7.53413C70.9078 7.48937 70.9213 7.4459 70.9451 7.40821C71.1597 7.40821 71.4329 7.40821 71.7711 7.44797C72.2264 7.44797 72.5322 7.50098 72.6818 7.50098C73.2788 7.51565 73.8761 7.49354 74.4705 7.43473H74.6006C74.6459 7.42802 74.6919 7.42802 74.7372 7.43473C74.7592 7.46343 74.7727 7.4979 74.7762 7.53413C74.7762 7.66667 74.6071 7.76607 74.2624 7.83234L73.9827 7.88537C73.7702 7.90697 73.5687 7.9923 73.4038 8.13057C73.2849 8.56128 73.2409 9.00985 73.2737 9.45601L73.2672 12.2726Z" fill="black"/>
<path d="M82.5635 10.5358H82.7932H83.212H84.9078C85.3792 10.5405 85.8505 10.5206 86.3198 10.4761V8.44417C86.3374 8.2882 86.2939 8.13153 86.1982 8.00593C85.9927 7.87636 85.7631 7.78832 85.5226 7.74696C85.3477 7.70636 85.176 7.65308 85.0091 7.58758C85.0005 7.55044 85.0005 7.51185 85.0091 7.47471C85.011 7.4328 85.0277 7.39285 85.0564 7.36182C85.2996 7.36182 85.6374 7.36182 86.0698 7.4083C86.5022 7.45478 86.7049 7.45479 86.9481 7.45479C87.5393 7.4741 88.1312 7.44746 88.7182 7.37511H88.8465C88.8935 7.36731 88.9415 7.36731 88.9884 7.37511C89.0112 7.40387 89.0253 7.4384 89.0289 7.47471C89.0289 7.60751 88.7655 7.72039 88.2385 7.81999C88.0051 7.83137 87.7821 7.91768 87.6034 8.06567C87.4779 8.38689 87.4316 8.73279 87.4683 9.07499V13.0126C87.4578 13.0935 87.465 13.1756 87.4895 13.2535C87.514 13.3314 87.5551 13.4032 87.6102 13.4641C87.8046 13.584 88.0199 13.6673 88.2452 13.7098C88.4196 13.7526 88.591 13.8058 88.7587 13.8692C88.7633 13.9022 88.7633 13.9357 88.7587 13.9688C88.7534 14.0171 88.7347 14.063 88.7047 14.1016L87.8467 14.0551C87.3737 14.0153 87.0562 13.9953 86.9008 13.9953C86.2807 13.9809 85.6603 14.003 85.0429 14.0618H84.9146C84.8676 14.069 84.8197 14.069 84.7727 14.0618C84.7479 14.0342 84.7335 13.999 84.7321 13.9621C84.7321 13.836 84.9078 13.743 85.2659 13.6833L85.5834 13.6766C85.779 13.6483 85.9672 13.5829 86.1374 13.4841C86.2433 13.3265 86.2997 13.1417 86.2995 12.9528C86.3333 12.6607 86.3468 12.1892 86.3468 11.5385V10.9209C85.982 10.9209 85.5631 10.9209 85.097 10.9209H83.1985H82.881H82.5905V13.0325C82.5805 13.115 82.5872 13.1985 82.6104 13.2783C82.6336 13.3581 82.6728 13.4326 82.7256 13.4973C82.9187 13.615 83.1314 13.6982 83.3539 13.743C83.5289 13.7836 83.7005 13.8369 83.8674 13.9024C83.8749 13.9352 83.8749 13.9692 83.8674 14.002C83.8651 14.0498 83.8487 14.096 83.8201 14.1348L82.9553 14.0883C82.4892 14.0485 82.1716 14.0286 82.0162 14.0286C81.3939 14.014 80.7712 14.0361 80.1516 14.095H80.0232C79.9784 14.1015 79.9329 14.1015 79.8881 14.095C79.8738 14.0824 79.8622 14.0671 79.8541 14.0499C79.8459 14.0328 79.8414 14.0142 79.8408 13.9953C79.8408 13.8692 80.0232 13.7762 80.3745 13.7165L80.665 13.6633C80.8694 13.6363 81.0653 13.5661 81.2393 13.4575C81.3532 13.2815 81.4076 13.0747 81.3947 12.8665C81.3947 12.5478 81.3947 11.917 81.3947 10.9741V8.55043C81.4166 8.37297 81.3786 8.19334 81.2866 8.03913C81.0855 7.90016 80.8542 7.8092 80.611 7.7735C80.4367 7.73077 80.2652 7.67756 80.0976 7.61415C80.092 7.57672 80.092 7.5387 80.0976 7.50127C80.0994 7.45937 80.1161 7.41941 80.1448 7.38838C80.3881 7.38838 80.7056 7.38839 81.1042 7.43487C81.5028 7.48135 81.7798 7.48135 82.0297 7.48135C82.6232 7.50057 83.2173 7.47391 83.8066 7.40166H83.9417C83.9865 7.39511 84.032 7.39511 84.0768 7.40166C84.1036 7.42862 84.1203 7.46376 84.1241 7.50127C84.1241 7.64736 83.8809 7.75359 83.3945 7.82664C82.908 7.89968 82.7189 7.99927 82.6445 8.152C82.5639 8.7127 82.5367 9.27957 82.5635 9.84523V10.5358Z" fill="black"/>
<path d="M96.0891 12.7901C96.1168 12.8395 96.1353 12.8932 96.1436 12.9488C96.1102 13.1093 96.0403 13.2607 95.939 13.3918C95.7882 13.6371 95.5832 13.8471 95.3388 14.0067C95.1629 14.0976 94.965 14.1409 94.7659 14.1323C94.5913 14.1438 94.4163 14.1164 94.2543 14.0522C94.0923 13.9881 93.9477 13.8888 93.8314 13.762C93.6709 13.5304 93.5789 13.2606 93.5654 12.9819L92.5901 13.643C92.347 13.7926 92.0858 13.9125 91.8125 14C91.4732 14.0797 91.1248 14.1175 90.7757 14.1124C90.6499 14.1169 90.5244 14.0964 90.4071 14.052C90.2898 14.0077 90.1831 13.9405 90.0937 13.8546C90.0073 13.7667 89.9398 13.6629 89.8953 13.5493C89.8508 13.4358 89.8301 13.3148 89.8345 13.1935C89.906 12.6636 90.1666 12.1747 90.5711 11.8117C91.1214 11.2285 91.8029 10.776 92.5628 10.4894C93.1494 10.2448 93.5108 10.0927 93.6473 10.0266C93.6473 9.84148 93.6473 9.63654 93.6473 9.41837C93.6982 8.91888 93.5912 8.41619 93.3403 7.97709C93.2349 7.85131 93.1001 7.75154 92.9472 7.68603C92.7942 7.62052 92.6274 7.59113 92.4605 7.60024C92.0424 7.60798 91.6429 7.76856 91.3419 8.04981C91.0693 8.35252 90.8981 8.72833 90.8508 9.12746C90.811 9.29313 90.7442 9.4516 90.653 9.59688C90.4815 9.72757 90.2762 9.80991 90.0596 9.83488C89.9341 9.83488 89.8121 9.79546 89.7117 9.7225C89.6867 9.70937 89.6656 9.69039 89.6501 9.6673C89.6346 9.64421 89.6253 9.61772 89.623 9.59027C89.7188 9.23518 89.8831 8.90091 90.1073 8.60518C90.3917 8.12047 90.8097 7.72211 91.3146 7.45479C91.7004 7.22653 92.1387 7.09475 92.5901 7.07132C92.9657 7.05316 93.3418 7.0979 93.7018 7.20356C93.9548 7.29546 94.1767 7.45331 94.343 7.65972C94.5222 7.86206 94.6381 8.10978 94.6772 8.37376C94.7181 8.81333 94.7318 9.25488 94.7181 9.69603V11.0183V11.9902C94.7181 12.1224 94.7181 12.2282 94.7181 12.3208C94.7181 12.4133 94.7181 12.5984 94.7181 12.6778C94.715 12.843 94.7758 13.0034 94.8886 13.1273C94.9375 13.1803 94.9974 13.2224 95.0645 13.2509C95.1316 13.2794 95.2042 13.2936 95.2774 13.2926C95.3905 13.2888 95.5008 13.2579 95.5984 13.2025C95.6961 13.1471 95.7779 13.069 95.8367 12.9753L95.939 12.8364L96.0891 12.7901ZM93.5518 12.5455C93.5927 11.8315 93.6132 11.3291 93.6132 11.0382C93.6132 10.8927 93.6132 10.6877 93.6132 10.4299C93.1811 10.5861 92.7691 10.7903 92.3854 11.0382C91.9791 11.2869 91.6269 11.6103 91.3487 11.9902C91.1825 12.2 91.0851 12.4534 91.069 12.7174C91.0658 12.8196 91.0847 12.9212 91.1247 13.0158C91.1646 13.1103 91.2247 13.1956 91.3009 13.2662C91.3774 13.3386 91.4681 13.3953 91.5678 13.4328C91.6674 13.4703 91.7739 13.4878 91.8807 13.4843C92.1202 13.4773 92.3543 13.4138 92.5628 13.2992C92.9392 13.0966 93.2837 12.8428 93.5859 12.5455H93.5518Z" fill="black"/>
<path d="M49.0291 29.6882C49.0892 29.6451 49.1597 29.6196 49.233 29.6145H49.6276C49.8836 29.6058 50.1376 29.5652 50.3839 29.4938C50.6018 29.3619 50.7776 29.1687 50.8903 28.9373C51.2652 28.1389 51.5903 27.3171 51.8637 26.4768C52.0347 25.9673 52.1465 25.6656 52.1925 25.5583C52.3306 25.2164 52.4622 24.8544 52.5937 24.4856L53.3763 22.2464C53.5013 21.891 53.7906 21.0865 54.2641 19.8261C54.3759 19.511 54.5206 19.0819 54.685 18.5522H54.935H55.2243C55.4815 19.0555 55.7014 19.5776 55.882 20.1144C55.9872 20.4094 56.1516 20.8451 56.3752 21.4552L57.6445 24.9482L58.3022 26.8456C58.6573 27.925 58.8875 28.5887 58.9993 28.8569C59.0697 29.0392 59.1748 29.2055 59.3084 29.3463C59.41 29.3908 59.5158 29.4245 59.6241 29.4469L60.0055 29.5475C60.1874 29.5965 60.3655 29.6592 60.5382 29.7352C60.5552 29.7827 60.5662 29.8323 60.5711 29.8827C60.5774 29.9249 60.5774 29.9678 60.5711 30.01H60.1963C59.9135 30.01 59.4136 30.01 58.6968 30.01H57.8615H56.2832C56.2233 30.0034 56.1653 29.9852 56.1122 29.9564C56.111 29.8779 56.1267 29.8001 56.1582 29.7285C56.2156 29.6973 56.2779 29.6769 56.3423 29.6681L57.2171 29.6078C57.3941 29.6059 57.5697 29.5742 57.7366 29.5139C57.7628 29.4406 57.7783 29.3638 57.7826 29.286C57.74 29.0126 57.6672 28.7449 57.5656 28.4882C57.467 28.2066 57.3815 27.9384 57.3025 27.6769C57.2236 27.4154 56.9343 26.5841 56.4147 25.1561C56.2172 25.1189 56.017 25.0988 55.8162 25.0957H54.0274H53.5012C53.2922 25.0961 53.0834 25.1118 52.8765 25.1427C52.8041 25.3103 52.7581 25.4309 52.7318 25.5047L51.9952 27.8445C51.8099 28.3259 51.6539 28.8185 51.5283 29.3195C51.5391 29.4086 51.5659 29.4949 51.6072 29.5743C51.7605 29.6165 51.9165 29.6479 52.0741 29.6681L53.2053 29.7687C53.2711 29.8223 53.2974 29.8693 53.2974 29.9095C53.3013 29.9518 53.3013 29.9945 53.2974 30.0369H52.7186C52.2714 30.0369 51.7584 30.0369 51.1665 29.9966H50.5812H49.9696H49.5619C49.4303 29.9966 49.2593 29.9966 49.0423 29.9966V29.9497C49.0133 29.8657 49.0087 29.7749 49.0291 29.6882ZM53.008 24.5795C53.6065 24.5795 54.2839 24.6264 55.0468 24.6264C55.4852 24.6264 55.8667 24.613 56.1911 24.5862C56.1413 24.3764 56.0776 24.1704 56.0004 23.9694C55.6387 22.9772 55.4348 22.4341 55.4019 22.3335L54.639 20.3691L54.5601 20.2149C54.5206 20.282 54.4023 20.577 54.1918 21.0932C53.8301 21.9782 53.5736 22.662 53.4223 23.1582C53.35 23.3794 53.2711 23.6006 53.1921 23.8286C53.1357 23.98 53.0874 24.1344 53.0475 24.2912C53.027 24.383 52.9984 24.4728 52.962 24.5594L53.008 24.5795Z" fill="black"/>
<path d="M63.6133 26.4767H63.8491H64.2668H65.9579C66.4281 26.4812 66.8981 26.4611 67.3661 26.4165V24.3725C67.3836 24.2156 67.3403 24.058 67.2448 23.9317C67.0399 23.8013 66.8109 23.7128 66.5711 23.6711C66.3948 23.6289 66.2215 23.5754 66.0523 23.5108C66.0463 23.4732 66.0463 23.4349 66.0523 23.3973C66.0541 23.3551 66.0708 23.3149 66.0994 23.2837C66.342 23.2837 66.6789 23.2837 67.1101 23.3305C67.5413 23.3772 67.7434 23.3772 67.9792 23.3772C68.5711 23.3968 69.1636 23.37 69.7512 23.2971H69.8792C69.926 23.2898 69.9738 23.2898 70.0207 23.2971C70.0434 23.326 70.0575 23.3608 70.0611 23.3973C70.0611 23.5309 69.7983 23.6444 69.2728 23.7446C69.0401 23.7561 68.8176 23.8429 68.6395 23.9918C68.5106 24.314 68.4643 24.6628 68.5047 25.0071V28.9682C68.495 29.049 68.5019 29.1309 68.5251 29.209C68.5483 29.2871 68.5872 29.3597 68.6395 29.4224C68.8346 29.5404 69.0489 29.624 69.2728 29.6695C69.449 29.7118 69.6224 29.7653 69.7916 29.8299C69.7968 29.8631 69.7968 29.8969 69.7916 29.9301C69.7893 29.9782 69.773 30.0247 69.7444 30.0637L68.8888 30.0169C68.4104 29.9768 68.1005 29.9568 67.9455 29.9568C67.3271 29.9422 66.7084 29.9645 66.0927 30.0236H65.9647C65.9178 30.0314 65.87 30.0314 65.8232 30.0236C65.7984 29.9958 65.7841 29.9604 65.7828 29.9234C65.7828 29.7965 65.9579 29.703 66.315 29.6428L66.6047 29.5894C66.7995 29.5596 66.9869 29.4939 67.1572 29.3957C67.2628 29.2371 67.319 29.0513 67.3189 28.8613C67.3189 28.5674 67.3661 28.0932 67.3661 27.4385V26.8173C66.9955 26.8173 66.5845 26.8173 66.1196 26.8173H64.2196H63.9097H63.6133V28.9415C63.6016 29.0244 63.6076 29.1088 63.6308 29.1894C63.654 29.2699 63.694 29.3447 63.748 29.409C63.9399 29.5287 64.1523 29.6125 64.3746 29.6562C64.5491 29.6971 64.7202 29.7506 64.8867 29.8165C64.8912 29.8498 64.8912 29.8834 64.8867 29.9167C64.8844 29.9648 64.868 30.0113 64.8395 30.0503L63.9771 30.0035C63.5122 29.9635 63.1956 29.9434 63.0339 29.9434C62.4155 29.9289 61.7967 29.9512 61.181 30.0102H61.053C61.0083 30.0168 60.9629 30.0168 60.9183 30.0102C60.904 29.9976 60.8924 29.9822 60.8843 29.9649C60.8762 29.9477 60.8717 29.929 60.8711 29.91C60.8711 29.7831 61.0463 29.6896 61.4034 29.6295L61.6931 29.576C61.8968 29.5489 62.0922 29.4782 62.2658 29.369C62.3761 29.1908 62.4279 28.9831 62.414 28.7745C62.414 28.4539 62.414 27.8193 62.414 26.8707V24.4326C62.4358 24.2541 62.3979 24.0734 62.3062 23.9183C62.1048 23.78 61.8745 23.6886 61.6324 23.6511C61.4583 23.6092 61.2872 23.5556 61.1204 23.4908C61.1117 23.4534 61.1117 23.4146 61.1204 23.3772C61.1226 23.3363 61.1366 23.2969 61.1608 23.2637C61.4101 23.2637 61.7268 23.2637 62.1243 23.3104C62.5218 23.3572 62.798 23.3572 63.0473 23.3572C63.6392 23.3765 64.2317 23.3497 64.8193 23.277H64.954C64.9987 23.2705 65.0441 23.2705 65.0888 23.277C65.1128 23.3059 65.1291 23.3404 65.136 23.3772C65.136 23.5242 64.8934 23.6311 64.4083 23.7045C63.9232 23.778 63.7346 23.8782 63.6604 24.0318C63.5759 24.5955 63.5466 25.1659 63.5728 25.7352L63.6133 26.4767Z" fill="black"/>
<path d="M76.8245 28.6989C76.851 28.7483 76.8686 28.8021 76.8766 28.8578C76.8442 29.0196 76.7751 29.1715 76.6747 29.3013C76.5347 29.5478 76.341 29.7585 76.1083 29.9169C75.8718 30.0268 75.6084 30.0622 75.352 30.0185C75.0955 29.9749 74.8578 29.8542 74.6694 29.672C74.5165 29.4395 74.4267 29.17 74.409 28.8909L73.4845 29.5528C73.2518 29.7013 73.0027 29.8213 72.7423 29.9102C72.4184 29.99 72.0859 30.0278 71.7527 30.0228C71.6324 30.0281 71.5125 30.0079 71.4004 29.9635C71.2883 29.919 71.1865 29.8513 71.1016 29.7646C71.0191 29.6766 70.9547 29.5727 70.9122 29.459C70.8697 29.3453 70.85 29.2242 70.8542 29.1027C70.9224 28.5722 71.1712 28.0827 71.5573 27.7193C72.0826 27.1353 72.7331 26.6823 73.4585 26.3954C74.0184 26.1505 74.3634 25.9982 74.4937 25.932C74.4937 25.7467 74.4937 25.5415 74.4937 25.3231C74.5423 24.823 74.4401 24.3197 74.2007 23.88C74.1 23.7541 73.9714 23.6542 73.8254 23.5886C73.6794 23.523 73.5202 23.4936 73.3608 23.5027C72.9599 23.5108 72.5766 23.6714 72.2865 23.9528C72.0308 24.2581 71.8699 24.6336 71.8243 25.0318C71.7834 25.1967 71.7198 25.3549 71.6354 25.5018C71.4696 25.6332 71.2714 25.7156 71.0625 25.7401C70.9449 25.7391 70.8308 25.6997 70.737 25.6276C70.7131 25.6144 70.6929 25.5954 70.6781 25.5723C70.6634 25.5492 70.6545 25.5227 70.6523 25.4952C70.7401 25.1395 70.8948 24.8046 71.1081 24.5089C71.3837 24.0246 71.7845 23.6263 72.267 23.3571C72.6353 23.1286 73.0536 22.9966 73.4845 22.9732C73.8431 22.955 74.2021 22.9998 74.5457 23.1056C74.7868 23.2031 74.9992 23.3622 75.1622 23.5674C75.3253 23.7726 75.4337 24.017 75.4768 24.2772C75.5119 24.7175 75.5227 25.1595 75.5093 25.6011V26.9249V27.898C75.5093 28.0304 75.5093 28.1363 75.5093 28.229C75.5093 28.3216 75.5093 28.507 75.5093 28.5864C75.5045 28.751 75.5602 28.9114 75.6656 29.0365C75.7134 29.0896 75.7718 29.1319 75.8369 29.1604C75.902 29.1889 75.9723 29.2031 76.0432 29.202C76.1511 29.1982 76.2564 29.1672 76.3496 29.1117C76.4428 29.0563 76.521 28.9781 76.5771 28.8843L76.6747 28.7452L76.8245 28.6989ZM74.4025 28.454C74.4416 27.7391 74.4611 27.2361 74.4611 26.9448C74.4611 26.7992 74.4611 26.5939 74.4611 26.3358C74.0466 26.4921 73.6512 26.6965 73.2827 26.9448C72.898 27.1957 72.5643 27.5193 72.2996 27.898C72.1409 28.1081 72.0479 28.3617 72.0326 28.6261C72.0295 28.7283 72.0476 28.8301 72.0857 28.9248C72.1238 29.0194 72.1812 29.1049 72.254 29.1755C72.3269 29.248 72.4136 29.3048 72.5087 29.3423C72.6038 29.3799 72.7054 29.3974 72.8074 29.3939C73.0249 29.3817 73.2366 29.3183 73.4259 29.2086C73.7852 29.0058 74.1141 28.7516 74.4025 28.454Z" fill="black"/>
<path d="M83.9707 22.7275C83.9794 22.7892 83.9794 22.8518 83.9707 22.9135V23.8636C83.9975 24.1774 83.9975 24.4931 83.9707 24.8069C83.9372 24.8304 83.899 24.8463 83.8588 24.8534C83.8017 24.8534 83.749 24.7538 83.7007 24.5545C83.5953 24.0828 83.4504 23.8037 83.2725 23.7174C82.8173 23.5967 82.3456 23.5518 81.8761 23.5845C81.6851 23.5845 81.4677 23.5845 81.2174 23.5845V24.0296L81.2569 27.192V28.0357V29.1785C81.2509 29.2504 81.2666 29.3224 81.3018 29.3853C81.3371 29.4481 81.3903 29.4987 81.4545 29.5305C81.6642 29.6202 81.8864 29.6762 82.1132 29.6966C82.2556 29.7135 82.3951 29.7492 82.5282 29.803V29.969H81.7509H80.8353H80.5719C80.1042 29.969 79.6497 29.969 79.2084 30.0355H79.07C78.9939 30.0404 78.9181 30.0219 78.8527 29.9823C78.8527 29.8893 78.8527 29.8362 78.8988 29.8229L79.0569 29.7697L79.4784 29.6767C79.8737 29.6036 80.0844 29.504 80.1371 29.391C80.1898 29.2781 80.1833 28.6204 80.1964 27.3979L80.1503 23.5911C79.8925 23.5587 79.6329 23.5432 79.3731 23.5446C79.0711 23.5384 78.7692 23.5585 78.4707 23.6044C78.2533 23.6044 77.9305 23.9566 77.5155 24.5678C77.397 24.7339 77.2982 24.8202 77.2191 24.8202H77.1796C77.1719 24.8011 77.1719 24.7796 77.1796 24.7604C77.1823 24.6994 77.1934 24.639 77.2125 24.581L77.3706 23.9565L77.5419 23.2922C77.588 23.1128 77.6209 22.9932 77.6341 22.9334C77.6473 22.8736 77.6868 22.7009 77.7658 22.7009C77.8449 22.7009 77.9107 22.7806 77.9898 22.9401C78.0341 23.0338 78.0995 23.1157 78.1808 23.1792C78.2954 23.2268 78.4198 23.2451 78.5431 23.2324H78.9383H79.6563H80.2162H82.4096C82.7983 23.2324 83.0683 23.2324 83.312 23.2656H83.4504C83.5206 23.2656 83.5667 23.2523 83.5887 23.2257C83.6659 23.1012 83.732 22.9701 83.7863 22.8338C83.839 22.7275 83.8983 22.6743 83.9707 22.6743C83.9728 22.692 83.9728 22.7098 83.9707 22.7275Z" fill="black"/>
<path d="M84.8811 26.46C84.888 26.0441 84.9672 25.6326 85.115 25.2444C85.2734 24.814 85.5166 24.4205 85.8299 24.0879C86.1172 23.7697 86.4611 23.5089 86.8437 23.3191C87.4231 23.0724 88.0479 22.9536 88.6763 22.9709C89.151 22.9665 89.6217 23.0576 90.0612 23.2388C90.5006 23.4201 90.9001 23.6878 91.2363 24.0266C91.5725 24.3653 91.8388 24.7682 92.0196 25.2119C92.2004 25.6557 92.2922 26.1313 92.2896 26.6112C92.2837 27.0625 92.184 27.5074 91.997 27.9172C91.81 28.327 91.54 28.6924 91.2043 28.9899C90.8375 29.3376 90.4065 29.6089 89.9359 29.7882C89.4653 29.9674 88.9645 30.0512 88.4619 30.0347C87.7753 30.0402 87.1006 29.8537 86.5123 29.4958C86.0319 29.1959 85.6323 28.7806 85.349 28.2868C85.0262 27.7345 84.864 27.1013 84.8811 26.46ZM88.5269 29.7455C88.9853 29.7482 89.4341 29.6128 89.8161 29.3565C90.198 29.1002 90.4958 28.7346 90.6714 28.3065C90.9094 27.7557 91.0269 27.1595 91.0159 26.5586C91.0012 26.0443 90.9115 25.535 90.7494 25.0473C90.6165 24.533 90.328 24.0735 89.9241 23.7331C89.5503 23.4477 89.0927 23.2973 88.6243 23.306C88.2401 23.3106 87.8613 23.398 87.5131 23.5623C87.0948 23.7769 86.7588 24.1259 86.5578 24.5545C86.2592 25.2056 86.1231 25.9208 86.1614 26.6375C86.0921 27.4587 86.3233 28.2771 86.8112 28.9373C87.0218 29.1879 87.2851 29.3876 87.582 29.5218C87.8789 29.656 88.2018 29.7212 88.5269 29.7127V29.7455Z" fill="black"/>
<path d="M97.0796 22.6743H97.3306C97.3714 22.7791 97.541 23.1328 97.8463 23.7289L99.2711 26.7353C99.6257 27.5618 100.041 28.3629 100.513 29.1326C100.726 29.3031 100.98 29.4181 101.252 29.4667C101.331 29.4847 101.406 29.5134 101.476 29.5518V29.7156H99.0744C98.6708 29.7444 98.2651 29.7246 97.8666 29.6566C97.8564 29.6069 97.8564 29.5557 97.8666 29.506C98.0113 29.462 98.1631 29.4442 98.3145 29.4536C98.5042 29.4619 98.6941 29.4421 98.8776 29.3946C98.9125 29.3798 98.9418 29.3547 98.9612 29.323C98.9807 29.2913 98.9894 29.2545 98.9862 29.2178C98.9862 28.8379 98.267 27.0912 96.8286 23.9778C96.7879 24.1022 96.5911 24.5345 96.245 25.2878L96.0144 25.8642L95.268 27.6065C95.0098 28.123 94.8119 28.6656 94.6777 29.2243C94.6777 29.3357 94.7117 29.4077 94.7863 29.4339C95.0791 29.5 95.376 29.5482 95.6751 29.578C95.7158 29.6042 95.7362 29.6304 95.7362 29.6566C95.7388 29.6849 95.7388 29.7135 95.7362 29.7418C95.112 29.7418 94.637 29.7418 94.3046 29.7418H93.504H93.2258H92.8866C92.879 29.6984 92.879 29.6541 92.8866 29.6108C92.8866 29.6108 93.029 29.5715 93.2733 29.5649C93.509 29.5795 93.7442 29.5295 93.9518 29.4208C94.0264 29.3488 94.4131 28.5562 95.1188 27.0497L96.3468 24.3642C96.5707 23.814 96.7336 23.421 96.8421 23.1983C96.9507 22.9756 97.066 22.7464 97.0796 22.6743Z" fill="black"/>
<path d="M101.79 23.4937C101.785 23.4576 101.785 23.4211 101.79 23.3851C101.797 23.342 101.813 23.3007 101.836 23.2637L102.681 23.3084C103.137 23.3467 103.447 23.3659 103.606 23.3659C104.212 23.3826 104.818 23.3592 105.421 23.2956H105.547C105.593 23.2897 105.639 23.2897 105.685 23.2956C105.71 23.3222 105.724 23.356 105.725 23.3915C105.725 23.5065 105.553 23.5959 105.223 23.6598L104.946 23.7046C104.751 23.7332 104.565 23.8007 104.398 23.9026C104.31 24.0294 104.262 24.1781 104.259 24.3307C104.259 24.5543 104.259 25.0463 104.259 25.8066C104.55 25.7678 104.844 25.7485 105.137 25.7491C106.577 25.7491 107.508 25.9408 107.93 26.3178C108.132 26.4809 108.295 26.6839 108.409 26.9131C108.523 27.1424 108.585 27.3925 108.59 27.6468C108.593 27.9124 108.53 28.1747 108.406 28.4115C108.281 28.6484 108.1 28.8529 107.877 29.0077C107.458 29.3459 106.951 29.5668 106.412 29.6467C105.408 29.7263 104.401 29.7562 103.395 29.7361H101.777C101.772 29.6638 101.772 29.5912 101.777 29.5189C101.777 29.5189 101.962 29.4742 102.272 29.4103C102.534 29.3911 102.787 29.3123 103.012 29.1803C103.103 28.8123 103.132 28.4326 103.097 28.0557C103.097 25.5 103.086 24.1582 103.064 24.0304C103.064 23.8962 102.787 23.7684 102.305 23.647C102.061 23.5704 101.883 23.5256 101.79 23.4937ZM104.2 26.2028V27.5254C104.185 27.952 104.203 28.3791 104.253 28.8033C104.27 28.8927 104.309 28.9768 104.367 29.0489C104.424 29.1211 104.498 29.1792 104.583 29.2186C104.839 29.3329 105.12 29.3834 105.402 29.3655C105.651 29.3762 105.9 29.3382 106.133 29.2536C106.367 29.1691 106.581 29.0398 106.762 28.8735C106.931 28.7171 107.064 28.5285 107.154 28.3195C107.244 28.1105 107.288 27.8858 107.283 27.6596C107.283 26.6501 106.475 26.1453 104.86 26.1453C104.639 26.1503 104.418 26.1695 104.2 26.2028Z" fill="black"/>
<path d="M115.621 25.4358H112.164H111.485C111.22 25.4358 110.949 25.4358 110.677 25.4752C110.635 25.5854 110.608 25.7002 110.596 25.8169V26.3885C110.618 26.8221 110.731 27.2467 110.928 27.6367C111.123 28.096 111.454 28.4893 111.879 28.7667C112.341 29.0387 112.873 29.1798 113.414 29.1741C113.68 29.1689 113.945 29.1314 114.202 29.0624C114.493 28.9501 114.771 28.8068 115.03 28.6353L115.648 28.1426L115.702 28.4777C115.705 28.5192 115.705 28.5609 115.702 28.6025C115.427 28.9316 115.096 29.2136 114.725 29.4369C114.348 29.6645 113.942 29.8413 113.516 29.9625C113.198 30.0199 112.875 30.0441 112.551 30.0347C112.136 30.0347 111.724 29.9519 111.343 29.7916C110.774 29.5472 110.298 29.1358 109.984 28.6156C109.636 28.0146 109.462 27.3335 109.482 26.6447C109.493 26.3273 109.54 26.0121 109.625 25.7052C109.739 25.276 109.91 24.863 110.134 24.4766C110.291 24.2001 110.501 23.9549 110.752 23.7539C111.024 23.5278 111.328 23.3398 111.655 23.1955C112.07 23.039 112.513 22.9631 112.959 22.9721C113.43 22.95 113.898 23.055 114.31 23.2755C114.723 23.496 115.064 23.8231 115.295 24.2204C115.503 24.5473 115.62 24.9208 115.635 25.3044L115.621 25.4358ZM110.813 25.1336H111.22C111.512 25.1336 112.382 25.0876 113.842 25.0022C113.985 25.0058 114.128 24.9835 114.263 24.9365C114.348 24.8635 114.404 24.7632 114.419 24.654C114.409 24.4462 114.349 24.2435 114.242 24.0627C114.126 23.8438 113.94 23.6666 113.713 23.5569C113.457 23.4294 113.172 23.3661 112.884 23.3729C112.577 23.3634 112.271 23.4245 111.992 23.5512C111.714 23.678 111.47 23.8668 111.282 24.1021C111.006 24.383 110.841 24.7476 110.813 25.1336Z" fill="black"/>
<path d="M116.297 23.3349V23.0933C116.513 23.0623 116.73 23.047 116.948 23.0476H117.241C117.821 22.9954 118.583 22.9692 119.534 22.9692C121.41 22.9692 122.348 23.496 122.348 24.5496C122.348 25.1308 121.879 25.6141 120.935 25.9994C122.186 26.2932 122.817 26.8549 122.817 27.6843C122.814 27.9246 122.759 28.1614 122.657 28.3788C122.555 28.5961 122.407 28.7891 122.225 28.9446C121.849 29.2866 121.383 29.5132 120.883 29.5977C119.908 29.7157 118.926 29.7616 117.945 29.7348H116.434C116.43 29.7023 116.43 29.6694 116.434 29.6369C116.434 29.552 116.434 29.5063 116.473 29.4932C116.618 29.4494 116.766 29.4145 116.916 29.3887C117.215 29.3234 117.398 29.245 117.45 29.1536C117.537 28.7971 117.565 28.4288 117.535 28.063V26.5871V25.5488V24.5104C117.535 23.8574 117.535 23.5048 117.535 23.4525C117.267 23.411 116.997 23.3848 116.727 23.3741C116.582 23.3867 116.437 23.3734 116.297 23.3349ZM118.609 25.908C118.772 25.9446 118.938 25.9643 119.104 25.9667C119.674 26.0232 120.246 25.8901 120.733 25.588C120.871 25.4715 120.982 25.3253 121.056 25.1603C121.131 24.9953 121.167 24.8156 121.163 24.6345C121.163 23.7203 120.583 23.2631 119.424 23.2631C119.136 23.2608 118.85 23.2937 118.57 23.3611V25.0459C118.57 25.268 118.583 25.5488 118.609 25.908ZM118.609 26.339C118.609 26.4173 118.609 26.4826 118.609 26.5218V27.1226C118.609 27.9977 118.609 28.5267 118.609 28.703C118.617 28.7954 118.644 28.8852 118.689 28.9662C118.734 29.0473 118.796 29.1179 118.87 29.1732C119.119 29.3285 119.412 29.3974 119.704 29.3691C120.192 29.3943 120.671 29.228 121.039 28.9055C121.201 28.7714 121.332 28.6028 121.421 28.4119C121.51 28.221 121.555 28.0125 121.554 27.8018C121.554 26.7896 120.792 26.2867 119.274 26.2867C119.049 26.2856 118.825 26.3031 118.603 26.339H118.609Z" fill="black"/>
<path d="M126.348 26.3247H126.57H126.98H128.617C129.069 26.3293 129.522 26.3101 129.973 26.2675V24.3201C129.987 24.1717 129.948 24.0231 129.862 23.9001C129.664 23.7758 129.442 23.6914 129.21 23.6519C129.042 23.6109 128.876 23.5599 128.714 23.4991C128.706 23.4635 128.706 23.4266 128.714 23.391C128.719 23.3502 128.737 23.3122 128.767 23.2828C128.995 23.2828 129.321 23.2828 129.744 23.3273C130.168 23.3719 130.357 23.3719 130.585 23.3719C131.158 23.3903 131.731 23.3648 132.3 23.2955H132.424C132.467 23.2881 132.511 23.2881 132.554 23.2955C132.577 23.323 132.593 23.3559 132.6 23.391C132.6 23.5182 132.345 23.6264 131.837 23.7219C131.61 23.7328 131.393 23.8154 131.218 23.9573C131.1 24.266 131.058 24.5972 131.094 24.9247V28.6985C131.083 28.7755 131.089 28.854 131.111 28.9286C131.134 29.0032 131.172 29.0723 131.224 29.1312C131.413 29.2436 131.62 29.3233 131.837 29.3667C132.005 29.4066 132.171 29.4576 132.332 29.5194C132.34 29.5508 132.34 29.5835 132.332 29.6149C132.327 29.6612 132.309 29.7052 132.28 29.7422L131.452 29.6976C130.996 29.6594 130.696 29.6403 130.546 29.6403C129.946 29.6265 129.345 29.6478 128.747 29.704H128.623C128.58 29.7114 128.536 29.7114 128.493 29.704C128.469 29.6775 128.455 29.6438 128.454 29.6085C128.454 29.4855 128.623 29.3964 128.962 29.3412L129.243 29.2903C129.433 29.2614 129.616 29.1989 129.784 29.1058C129.886 28.955 129.938 28.7773 129.934 28.5967C129.934 28.3167 129.979 27.8648 129.979 27.2412V26.6493C129.627 26.6493 129.223 26.6493 128.773 26.6493H126.941H126.635H126.355V28.673C126.345 28.752 126.351 28.8321 126.374 28.9086C126.396 28.9851 126.434 29.0564 126.485 29.1185C126.674 29.2309 126.881 29.3106 127.098 29.354C127.265 29.3915 127.428 29.4426 127.587 29.5067C127.594 29.5381 127.594 29.5707 127.587 29.6021C127.584 29.647 127.571 29.6906 127.548 29.7294L126.713 29.6849C126.257 29.6467 125.957 29.6276 125.801 29.6276C125.202 29.6137 124.604 29.635 124.008 29.6913H123.878C123.834 29.6975 123.79 29.6975 123.747 29.6913C123.723 29.6648 123.709 29.6311 123.708 29.5958C123.708 29.4749 123.877 29.3858 124.223 29.3285L124.503 29.2776C124.7 29.2517 124.89 29.1844 125.057 29.0803C125.164 28.9106 125.214 28.7127 125.201 28.5139C125.201 28.2085 125.201 27.6039 125.201 26.7002V24.3774C125.22 24.2066 125.181 24.0342 125.09 23.8873C124.896 23.7544 124.673 23.6672 124.438 23.6328C124.269 23.5939 124.104 23.5428 123.943 23.48C123.934 23.4444 123.934 23.4075 123.943 23.3719C123.945 23.3329 123.958 23.2953 123.982 23.2637C124.216 23.2637 124.529 23.2637 124.907 23.3082C125.286 23.3528 125.559 23.3528 125.801 23.3528C126.373 23.3714 126.946 23.3459 127.515 23.2764H127.645C127.691 23.2695 127.737 23.2695 127.782 23.2764C127.804 23.304 127.818 23.3371 127.821 23.3719C127.821 23.5119 127.587 23.6137 127.117 23.6837C126.648 23.7537 126.465 23.8492 126.4 23.9955C126.315 24.5322 126.286 25.076 126.316 25.6183L126.348 26.3247Z" fill="black"/>
<path d="M139.667 28.692C139.692 28.7414 139.708 28.7953 139.712 28.8507C139.681 29.0112 139.614 29.1626 139.517 29.2937C139.375 29.5404 139.18 29.7507 138.945 29.9085C138.779 29.9985 138.593 30.0419 138.405 30.0341C138.238 30.0457 138.07 30.0184 137.914 29.9542C137.759 29.8901 137.62 29.7908 137.508 29.6639C137.36 29.4296 137.273 29.1613 137.254 28.8838L136.33 29.5449C136.098 29.6932 135.849 29.813 135.589 29.9019C135.263 29.9816 134.929 30.0193 134.594 30.0143C134.474 30.0188 134.354 29.9982 134.242 29.9539C134.131 29.9095 134.029 29.8424 133.944 29.7565C133.862 29.6682 133.799 29.5642 133.757 29.4506C133.716 29.3371 133.698 29.2163 133.703 29.0953C133.771 28.5669 134.017 28.0787 134.399 27.7136C134.925 27.1318 135.574 26.6796 136.298 26.3914C136.864 26.1468 137.209 25.9947 137.332 25.9286C137.332 25.7435 137.332 25.5386 137.332 25.3204C137.381 24.8209 137.279 24.3183 137.039 23.8792C136.937 23.7537 136.807 23.6542 136.661 23.5888C136.514 23.5234 136.354 23.4938 136.194 23.5023C135.796 23.5114 135.415 23.6718 135.127 23.9519C134.872 24.2567 134.711 24.6318 134.665 25.0295C134.625 25.1942 134.561 25.3522 134.477 25.4989C134.311 25.6289 134.113 25.7111 133.905 25.7369C133.785 25.7369 133.669 25.6975 133.573 25.6245C133.55 25.6105 133.53 25.5913 133.515 25.5684C133.501 25.5455 133.491 25.5194 133.488 25.4923C133.58 25.1372 133.736 24.803 133.95 24.5072C134.224 24.0221 134.624 23.6238 135.108 23.3569C135.476 23.1286 135.894 22.9969 136.324 22.9734C136.68 22.9546 137.037 22.9993 137.378 23.1057C137.619 23.1976 137.83 23.3554 137.989 23.5618C138.159 23.7655 138.271 24.0123 138.314 24.2758C138.314 24.3948 138.347 24.8378 138.347 25.598V26.9203V27.8921C138.347 28.0243 138.347 28.1301 138.347 28.2227C138.347 28.3152 138.347 28.5003 138.347 28.5797C138.342 28.744 138.398 28.9043 138.503 29.0292C138.549 29.0821 138.607 29.1243 138.67 29.1528C138.734 29.1813 138.804 29.1955 138.874 29.1945C138.982 29.1918 139.089 29.1613 139.183 29.1059C139.278 29.0504 139.357 28.9718 139.413 28.8772L139.511 28.7383C139.561 28.7177 139.614 28.7022 139.667 28.692ZM137.248 28.4474C137.287 27.7334 137.306 27.231 137.306 26.9401C137.306 26.7947 137.306 26.5897 137.306 26.3319C136.892 26.488 136.497 26.6921 136.129 26.9401C135.743 27.1907 135.407 27.5138 135.14 27.8921C134.984 28.1027 134.894 28.356 134.88 28.6193C134.877 28.7208 134.895 28.8218 134.932 28.9161C134.969 29.0105 135.024 29.0962 135.095 29.1681C135.168 29.2399 135.255 29.2962 135.35 29.3336C135.444 29.3711 135.546 29.3889 135.648 29.3862C135.876 29.3781 136.099 29.3147 136.298 29.2011C136.647 28.9949 136.966 28.7414 137.248 28.4474Z" fill="black"/>
<path d="M8.12907 15.9016C7.73426 15.9016 7.35243 15.7606 7.05237 15.5038L0.42646 9.83509C0.155738 9.53477 0.00408944 9.14575 8.15171e-05 8.74132C-0.00392641 8.3369 0.13998 7.94497 0.404697 7.63934C0.669414 7.3337 1.03665 7.13547 1.43729 7.08196C1.83793 7.02845 2.2443 7.12336 2.57986 7.34881L9.20577 13.0175C9.53848 13.3044 9.74371 13.7118 9.77632 14.15C9.80894 14.5883 9.66629 15.0216 9.37972 15.3546C9.22206 15.5294 9.02896 15.6687 8.81331 15.763C8.59766 15.8573 8.3644 15.9045 8.12907 15.9016Z" fill="#363636"/>
<path d="M1.671 47.9998C1.33036 47.9995 0.997924 47.8959 0.718165 47.7028C0.438406 47.5097 0.224663 47.2363 0.105555 46.9191C-0.013554 46.602 -0.0323543 46.2563 0.051665 45.9282C0.135684 45.6002 0.318526 45.3055 0.57571 45.0835L23.4013 25.3673C23.7384 25.1139 24.1595 24.9967 24.58 25.0394C25.0004 25.082 25.389 25.2812 25.6676 25.597C25.9462 25.9129 26.0942 26.3218 26.0817 26.7416C26.0692 27.1614 25.8972 27.5609 25.6003 27.8598L2.7663 47.6176C2.45884 47.8709 2.07032 48.0064 1.671 47.9998Z" fill="#363636"/>
<path d="M1.63015 47.9998C1.19781 47.9998 0.783171 47.8261 0.477459 47.517C0.171746 47.2079 0 46.7887 0 46.3516V8.71556C0 8.27843 0.171746 7.85921 0.477459 7.55012C0.783171 7.24103 1.19781 7.06738 1.63015 7.06738C2.06249 7.06738 2.47713 7.24103 2.78284 7.55012C3.08855 7.85921 3.2603 8.27843 3.2603 8.71556V46.3516C3.2603 46.7887 3.08855 47.2079 2.78284 47.517C2.47713 47.8261 2.06249 47.9998 1.63015 47.9998Z" fill="#363636"/>
<path d="M35.6545 45.3496C35.2676 45.3489 34.8928 45.2195 34.593 44.9831L26.4049 38.5239C26.2334 38.3886 26.0912 38.222 25.9863 38.0335C25.8815 37.8451 25.816 37.6385 25.7937 37.4256C25.7714 37.2127 25.7927 36.9976 25.8564 36.7926C25.9201 36.5877 26.0249 36.3969 26.1648 36.2311C26.3047 36.0653 26.4771 35.9277 26.672 35.8264C26.8669 35.725 27.0806 35.6617 27.3008 35.6401C27.521 35.6186 27.7434 35.6392 27.9554 35.7007C28.1673 35.7623 28.3647 35.8636 28.5362 35.9989L36.7243 42.4581C36.9942 42.6708 37.1892 42.9592 37.2826 43.2836C37.3761 43.6079 37.3632 43.9523 37.2459 44.2693C37.1286 44.5863 36.9127 44.8604 36.6277 45.0538C36.3427 45.2473 36.0027 45.3506 35.6545 45.3496Z" fill="#363636"/>
<path d="M35.7151 45.3495C35.2828 45.3495 34.8682 45.1758 34.5624 44.8665C34.2567 44.5573 34.085 44.1378 34.085 43.7005V1.64907C34.085 1.21171 34.2567 0.792263 34.5624 0.483001C34.8682 0.17374 35.2828 0 35.7151 0C36.1475 0 36.5621 0.17374 36.8678 0.483001C37.1735 0.792263 37.3453 1.21171 37.3453 1.64907V43.7005C37.3453 44.1378 37.1735 44.5573 36.8678 44.8665C36.5621 45.1758 36.1475 45.3495 35.7151 45.3495Z" fill="#363636"/>
<path d="M11.1467 26.2085C10.814 26.209 10.4888 26.1099 10.2134 25.924C9.93804 25.7381 9.72525 25.4741 9.60275 25.1663C9.48024 24.8584 9.4537 24.521 9.52653 24.198C9.59936 23.8749 9.7682 23.5812 10.0111 23.3549L34.5553 0.443997C34.7146 0.295925 34.9018 0.180581 35.106 0.104572C35.3102 0.0285636 35.5275 -0.00663233 35.7454 0.00102852C35.9633 0.00868937 36.1775 0.0590609 36.3759 0.149222C36.5742 0.239382 36.7527 0.367556 36.9011 0.52645C37.2002 0.845199 37.3602 1.26882 37.3462 1.70465C37.3322 2.14048 37.1454 2.55306 36.8265 2.85219L12.2989 25.7549C11.9882 26.0486 11.5753 26.2111 11.1467 26.2085Z" fill="#363636"/>
<path d="M49.6904 38.9898H50.1203V39.9803C50.3063 39.6574 50.5728 39.3874 50.8943 39.1962C51.2158 39.005 51.5814 38.8991 51.9561 38.8887C52.5425 38.9347 53.0899 39.1984 53.4892 39.6272C53.8884 40.0559 54.1101 40.6182 54.1101 41.202C54.1101 41.7857 53.8884 42.3481 53.4892 42.7768C53.0899 43.2056 52.5425 43.4693 51.9561 43.5153C51.5869 43.5157 51.2238 43.4214 50.9021 43.2416C50.5805 43.0617 50.3112 42.8024 50.1203 42.4888V44.831H49.6904V38.9898ZM53.6608 41.202C53.6786 40.9613 53.6469 40.7196 53.5676 40.4915C53.4884 40.2634 53.3631 40.0537 53.1995 39.8752C53.036 39.6966 52.8375 39.553 52.6162 39.453C52.395 39.353 52.1555 39.2987 51.9124 39.2935C51.4023 39.2935 50.9131 39.4945 50.5524 39.8525C50.1918 40.2104 49.9891 40.6958 49.9891 41.202C49.9891 41.7081 50.1918 42.1936 50.5524 42.5515C50.9131 42.9094 51.4023 43.1105 51.9124 43.1105C52.1575 43.1117 52.4001 43.0618 52.6244 42.964C52.8488 42.8661 53.05 42.7226 53.2148 42.5426C53.3797 42.3627 53.5046 42.1503 53.5814 41.9193C53.6582 41.6884 53.6853 41.444 53.6608 41.202Z" fill="black"/>
<path d="M55.2906 41.1948C55.2719 40.904 55.3124 40.6125 55.4097 40.3376C55.507 40.0628 55.6592 39.8102 55.857 39.595C56.0549 39.3797 56.2944 39.2062 56.5613 39.0849C56.8282 38.9635 57.117 38.8968 57.4105 38.8887C58.6563 38.8887 59.4503 39.8935 59.4503 41.202C59.4541 41.2597 59.4541 41.3177 59.4503 41.3755H55.7568C55.7606 41.8352 55.9458 42.2751 56.2727 42.6008C56.5995 42.9265 57.042 43.1121 57.5052 43.1177C57.7978 43.1145 58.0861 43.0481 58.3503 42.9233C58.6145 42.7985 58.8481 42.6182 59.0351 42.3948L59.3265 42.655C59.1017 42.9218 58.8193 43.1351 58.5003 43.279C58.1813 43.4229 57.8337 43.4937 57.4834 43.4864C57.185 43.4879 56.8895 43.4287 56.6151 43.3126C56.3407 43.1964 56.0931 43.0257 55.8877 42.811C55.6823 42.5963 55.5233 42.3422 55.4206 42.0642C55.3179 41.7862 55.2737 41.4904 55.2906 41.1948ZM58.9914 40.9923C59.0011 40.775 58.9673 40.558 58.8917 40.3538C58.8162 40.1496 58.7004 39.9623 58.5513 39.8029C58.4022 39.6434 58.2226 39.5151 58.023 39.4251C57.8234 39.3352 57.6078 39.2855 57.3887 39.279C56.9467 39.303 56.5307 39.4938 56.2259 39.8124C55.9212 40.1309 55.7507 40.5531 55.7495 40.9923H58.9914Z" fill="black"/>
<path d="M60.8432 38.9893H64.5513V43.4136H64.1215V39.3724H61.2658V43.4136H60.8359L60.8432 38.9893Z" fill="black"/>
<path d="M66.0152 41.1948C65.9965 40.9046 66.0368 40.6137 66.1337 40.3393C66.2305 40.0649 66.382 39.8126 66.5791 39.5975C66.7762 39.3823 67.0149 39.2087 67.2809 39.087C67.547 38.9652 67.835 38.8978 68.1279 38.8887C68.4191 38.8961 68.7057 38.9632 68.9696 39.0858C69.2335 39.2084 69.4689 39.3839 69.6612 39.6011C69.8534 39.8184 69.9983 40.0727 70.0867 40.3482C70.1752 40.6237 70.2052 40.9144 70.175 41.202C70.1825 41.2596 70.1825 41.3179 70.175 41.3755H66.4814C66.4852 41.8352 66.6704 42.2751 66.9973 42.6008C67.3241 42.9265 67.7667 43.1121 68.2299 43.1177C68.5225 43.115 68.811 43.0488 69.0753 42.924C69.3395 42.7991 69.5731 42.6185 69.7597 42.3948L70.0584 42.655C69.8318 42.9216 69.548 43.1345 69.2279 43.2784C68.9078 43.4222 68.5593 43.4933 68.208 43.4864C67.9097 43.4879 67.6142 43.4287 67.3397 43.3126C67.0653 43.1964 66.8178 43.0257 66.6123 42.811C66.4069 42.5963 66.248 42.3422 66.1453 42.0642C66.0426 41.7862 65.9983 41.4904 66.0152 41.1948ZM69.7087 40.9923C69.7195 40.7754 69.6865 40.5585 69.6118 40.3543C69.537 40.1502 69.422 39.9628 69.2735 39.8033C69.1249 39.6438 68.9458 39.5152 68.7466 39.4252C68.5474 39.3352 68.3321 39.2855 68.1133 39.279C67.67 39.3012 67.2522 39.4913 66.9459 39.81C66.6396 40.1288 66.4682 40.5519 66.4669 40.9923H69.7087Z" fill="black"/>
<path d="M72.5052 39.3724H70.8369V38.9893H74.6033V39.3724H72.9204V43.4136H72.4906L72.5052 39.3724Z" fill="black"/>
<path d="M75.835 38.9893H76.2648V42.8497L79.2881 38.9893H79.7179V43.4136H79.2881V39.5532L76.2648 43.4136H75.835V38.9893Z" fill="black"/>
<path d="M82.5892 39.3724H80.9355V38.9893H84.7019V39.3724H83.0263V43.4136H82.6038L82.5892 39.3724Z" fill="black"/>
<path d="M85.3049 41.2022C85.3135 40.7548 85.4551 40.3201 85.712 39.9524C85.9688 39.5847 86.3294 39.3005 86.7485 39.1355C87.1676 38.9705 87.6265 38.9322 88.0675 39.0252C88.5085 39.1182 88.912 39.3385 89.2272 39.6583C89.5425 39.9782 89.7555 40.3833 89.8394 40.8229C89.9234 41.2624 89.8746 41.7168 89.6991 42.129C89.5237 42.5411 89.2294 42.8926 88.8532 43.1393C88.4771 43.386 88.0359 43.5169 87.5851 43.5155C87.2821 43.5127 86.9828 43.4505 86.7041 43.3327C86.4254 43.2148 86.1729 43.0435 85.9611 42.8286C85.7492 42.6136 85.5822 42.3594 85.4696 42.0803C85.357 41.8012 85.301 41.5028 85.3049 41.2022ZM89.4209 41.2022C89.401 40.848 89.2768 40.5073 89.0639 40.2224C88.8509 39.9375 88.5584 39.7207 88.2226 39.599C87.8868 39.4773 87.5225 39.4559 87.1745 39.5376C86.8266 39.6192 86.5105 39.8002 86.2651 40.0582C86.0198 40.3163 85.8561 40.64 85.7942 40.9894C85.7324 41.3388 85.7751 41.6986 85.9171 42.0241C86.0591 42.3497 86.2942 42.6268 86.5932 42.8212C86.8922 43.0156 87.2422 43.1188 87.5996 43.1179C87.8481 43.1132 88.0931 43.0599 88.3207 42.961C88.5483 42.8621 88.754 42.7195 88.9259 42.5415C89.0978 42.3635 89.2326 42.1535 89.3226 41.9237C89.4125 41.6939 89.4558 41.4487 89.45 41.2022H89.4209Z" fill="black"/>
<path d="M91.374 38.9898H91.8039V39.9803C91.9865 39.6546 92.2523 39.3822 92.5745 39.1906C92.8967 38.999 93.2641 38.8949 93.6397 38.8887C94.2261 38.9347 94.7735 39.1984 95.1728 39.6272C95.572 40.0559 95.7937 40.6182 95.7937 41.202C95.7937 41.7857 95.572 42.3481 95.1728 42.7768C94.7735 43.2056 94.2261 43.4693 93.6397 43.5153C93.2674 43.5142 92.9018 43.4162 92.5797 43.2309C92.2575 43.0457 91.99 42.7799 91.8039 42.4599V44.8021H91.374V38.9898ZM95.3371 41.202C95.3549 40.9619 95.3235 40.7208 95.2446 40.4932C95.1658 40.2656 95.0412 40.0562 94.8784 39.8777C94.7156 39.6993 94.518 39.5555 94.2976 39.4551C94.0771 39.3547 93.8384 39.2997 93.596 39.2935C93.0859 39.2935 92.5967 39.4945 92.236 39.8525C91.8753 40.2104 91.6727 40.6958 91.6727 41.202C91.6727 41.7081 91.8753 42.1936 92.236 42.5515C92.5967 42.9094 93.0859 43.1105 93.596 43.1105C93.8408 43.1118 94.0831 43.0619 94.3072 42.964C94.5312 42.8661 94.732 42.7224 94.8963 42.5423C95.0606 42.3622 95.1847 42.1498 95.2607 41.9188C95.3367 41.6879 95.3627 41.4436 95.3371 41.202Z" fill="black"/>
<path d="M100.043 38.9893H103.751V43.4136H103.321V39.3724H100.473V43.4136H100.043V38.9893Z" fill="black"/>
<path d="M105.207 41.2014C105.214 40.752 105.355 40.3148 105.613 39.9448C105.87 39.5748 106.231 39.2886 106.652 39.1222C107.073 38.9559 107.534 38.9167 107.977 39.0098C108.42 39.1029 108.826 39.324 109.142 39.6453C109.459 39.9666 109.673 40.3737 109.757 40.8154C109.841 41.2571 109.791 41.7135 109.614 42.1272C109.437 42.541 109.141 42.8935 108.762 43.1404C108.384 43.3873 107.94 43.5176 107.487 43.5148C107.184 43.512 106.885 43.4498 106.606 43.3319C106.328 43.2141 106.075 43.0427 105.863 42.8278C105.652 42.6129 105.485 42.3586 105.372 42.0795C105.259 41.8004 105.203 41.502 105.207 41.2014ZM109.323 41.2014C109.346 40.9505 109.316 40.6977 109.234 40.459C109.153 40.2203 109.023 40.001 108.851 39.8151C108.68 39.6292 108.472 39.4808 108.239 39.3792C108.007 39.2776 107.756 39.2251 107.502 39.2251C107.248 39.2251 106.997 39.2776 106.765 39.3792C106.532 39.4808 106.324 39.6292 106.153 39.8151C105.981 40.001 105.851 40.2203 105.77 40.459C105.688 40.6977 105.658 40.9505 105.681 41.2014C105.672 41.4475 105.713 41.6928 105.801 41.923C105.889 42.1532 106.022 42.3636 106.193 42.542C106.364 42.7204 106.569 42.8632 106.796 42.962C107.024 43.0607 107.268 43.1135 107.517 43.1172C108.014 43.1021 108.486 42.8921 108.829 42.5333C109.171 42.1744 109.357 41.6956 109.345 41.2014H109.323Z" fill="black"/>
<path d="M114.017 38.9898H114.446V39.9803C114.628 39.6556 114.893 39.3839 115.214 39.1924C115.535 39.0008 115.901 38.8961 116.275 38.8887C116.861 38.9347 117.409 39.1984 117.808 39.6272C118.207 40.0559 118.429 40.6182 118.429 41.202C118.429 41.7857 118.207 42.3481 117.808 42.7768C117.409 43.2056 116.861 43.4693 116.275 43.5153C115.907 43.5159 115.545 43.4216 115.224 43.2417C114.904 43.0618 114.636 42.8023 114.446 42.4888V44.831H114.017V38.9898ZM117.98 41.202C117.998 40.9613 117.966 40.7196 117.887 40.4915C117.807 40.2634 117.682 40.0537 117.518 39.8752C117.355 39.6966 117.156 39.553 116.935 39.453C116.714 39.353 116.474 39.2987 116.231 39.2935C115.721 39.2935 115.232 39.4945 114.871 39.8525C114.511 40.2104 114.308 40.6958 114.308 41.202C114.308 41.7081 114.511 42.1936 114.871 42.5515C115.232 42.9094 115.721 43.1105 116.231 43.1105C116.476 43.1117 116.719 43.0618 116.943 42.964C117.168 42.8661 117.369 42.7226 117.534 42.5426C117.699 42.3627 117.823 42.1503 117.9 41.9193C117.977 41.6884 118.004 41.444 117.98 41.202Z" fill="black"/>
<path d="M119.408 44.6577L119.561 44.2818C119.786 44.3976 120.037 44.4548 120.29 44.4481C120.756 44.4481 121.055 44.1806 121.39 43.4071L119.248 39.0117H119.751L121.601 42.9661L123.211 39.0117H123.677L121.747 43.595C121.353 44.5204 120.902 44.8457 120.29 44.8457C119.985 44.8498 119.684 44.7855 119.408 44.6577Z" fill="black"/>
<path d="M124.551 41.2019C124.544 40.8999 124.598 40.5995 124.709 40.3183C124.82 40.0371 124.987 39.7807 125.199 39.5641C125.412 39.3474 125.665 39.1748 125.945 39.0564C126.225 38.9379 126.526 38.876 126.831 38.8741C127.169 38.8706 127.504 38.9428 127.811 39.0855C128.117 39.2282 128.387 39.4377 128.601 39.6983L128.302 40.0019C128.125 39.7862 127.903 39.6102 127.652 39.4856C127.401 39.361 127.126 39.2906 126.845 39.279C126.333 39.279 125.842 39.4808 125.48 39.8401C125.118 40.1994 124.915 40.6867 124.915 41.1947C124.915 41.7028 125.118 42.1901 125.48 42.5494C125.842 42.9086 126.333 43.1104 126.845 43.1104C127.126 43.0993 127.401 43.0291 127.652 42.9044C127.903 42.7798 128.125 42.6036 128.302 42.3875L128.616 42.6622C128.32 43.0368 127.912 43.3095 127.451 43.4418C126.991 43.5741 126.5 43.5593 126.048 43.3994C125.596 43.2395 125.206 42.9428 124.933 42.551C124.661 42.1593 124.519 41.6924 124.529 41.2164L124.551 41.2019Z" fill="black"/>
<path d="M129.68 41.202C129.673 40.9023 129.726 40.6043 129.835 40.325C129.945 40.0456 130.109 39.7905 130.318 39.5743C130.527 39.358 130.778 39.1848 131.054 39.0647C131.331 38.9446 131.629 38.8798 131.931 38.8742C132.269 38.8701 132.605 38.9421 132.911 39.0848C133.218 39.2276 133.488 39.4373 133.701 39.6983L133.41 40.0019C133.231 39.7876 133.009 39.6126 132.758 39.4881C132.507 39.3637 132.233 39.2924 131.953 39.279C131.441 39.2838 130.952 39.4902 130.593 39.8529C130.234 40.2155 130.036 40.7047 130.04 41.2128C130.045 41.7209 130.253 42.2063 130.619 42.5622C130.984 42.918 131.477 43.1153 131.989 43.1105C132.27 43.1002 132.545 43.0304 132.797 42.9057C133.048 42.781 133.269 42.6043 133.446 42.3876L133.767 42.6623C133.472 43.0399 133.064 43.3154 132.601 43.4495C132.139 43.5837 131.646 43.5696 131.192 43.4094C130.739 43.2492 130.347 42.9509 130.075 42.5572C129.802 42.1634 129.661 41.6942 129.673 41.2164L129.68 41.202Z" fill="black"/>
<path d="M135.122 38.9893H135.574V41.8231L138.335 38.9893H138.903L136.958 40.9484L138.969 43.4136H138.422L136.659 41.2448L135.574 42.3292V43.4063H135.151L135.122 38.9893Z" fill="black"/>
<path d="M139.637 41.2014C139.644 40.752 139.785 40.3148 140.042 39.9448C140.299 39.5748 140.661 39.2886 141.082 39.1222C141.503 38.9559 141.964 38.9167 142.407 39.0098C142.85 39.1029 143.255 39.324 143.572 39.6453C143.889 39.9666 144.102 40.3737 144.186 40.8154C144.27 41.2571 144.221 41.7135 144.044 42.1272C143.867 42.541 143.571 42.8935 143.192 43.1404C142.814 43.3873 142.37 43.5176 141.917 43.5148C141.614 43.512 141.315 43.4498 141.036 43.3319C140.757 43.2141 140.505 43.0427 140.293 42.8278C140.081 42.6129 139.914 42.3586 139.802 42.0795C139.689 41.8004 139.633 41.502 139.637 41.2014ZM143.753 41.2014C143.776 40.9505 143.745 40.6977 143.664 40.459C143.583 40.2203 143.452 40.001 143.281 39.8151C143.11 39.6292 142.901 39.4808 142.669 39.3792C142.437 39.2776 142.186 39.2251 141.932 39.2251C141.678 39.2251 141.427 39.2776 141.194 39.3792C140.962 39.4808 140.754 39.6292 140.582 39.8151C140.411 40.001 140.281 40.2203 140.199 40.459C140.118 40.6977 140.088 40.9505 140.11 41.2014C140.102 41.4475 140.142 41.6928 140.23 41.923C140.318 42.1532 140.452 42.3636 140.623 42.542C140.794 42.7204 140.999 42.8632 141.226 42.962C141.453 43.0607 141.698 43.1135 141.946 43.1172C142.44 43.0965 142.906 42.8842 143.244 42.5259C143.582 42.1676 143.765 41.692 143.753 41.2014Z" fill="black"/>
<path d="M145.677 38.9893H146.063L147.884 41.5339L149.698 38.9893H150.084V43.4136H149.654V39.7266L147.862 42.1701L146.092 39.7266V43.4136H145.677V38.9893Z" fill="black"/>
<path d="M151.512 44.6577L151.658 44.2818C151.883 44.3961 152.133 44.4533 152.386 44.4481C152.852 44.4481 153.158 44.1806 153.493 43.4071L151.352 39.0117H151.847L153.697 42.9661L155.307 39.0117H155.781L153.85 43.595C153.457 44.5204 152.998 44.8457 152.393 44.8457C152.089 44.8506 151.787 44.7863 151.512 44.6577Z" fill="black"/>
<path d="M160.938 41.6496C160.598 41.6184 160.28 41.4657 160.044 41.2197C159.808 40.9738 159.67 40.6514 159.656 40.3122C159.656 39.5315 160.268 38.9893 161.288 38.9893H163.255V43.4136H162.825V41.7147H161.368L160.042 43.4136H159.518L160.938 41.6496ZM162.854 41.3315V39.3724H161.353C160.574 39.3724 160.122 39.7556 160.122 40.3339C160.122 40.9123 160.654 41.3315 161.368 41.3315H162.854Z" fill="black"/>
<path d="M164.632 42.8435L164.894 42.4966C165.312 42.8822 165.86 43.0988 166.431 43.1038C167.043 43.1038 167.648 42.7207 167.648 42.1929C167.648 41.6652 167.182 41.3399 166.402 41.3399H165.79V40.9567H166.409C167.043 40.9567 167.524 40.6386 167.524 40.0965C167.524 39.5543 167.05 39.3157 166.446 39.3157C165.948 39.312 165.462 39.4694 165.062 39.7639L164.807 39.4242C165.286 39.0833 165.863 38.9035 166.453 38.9109C167.393 38.9109 167.998 39.4025 167.998 40.0965C167.999 40.3207 167.93 40.5397 167.799 40.7226C167.668 40.9055 167.483 41.043 167.269 41.1158C167.511 41.1751 167.726 41.3151 167.877 41.5124C168.028 41.7097 168.107 41.9524 168.1 42.2001C168.082 42.3959 168.024 42.586 167.93 42.7589C167.835 42.9317 167.707 43.0837 167.551 43.2054C167.396 43.3272 167.217 43.4163 167.026 43.4672C166.834 43.5181 166.635 43.5297 166.439 43.5014C165.777 43.4998 165.137 43.2669 164.632 42.8435Z" fill="black"/>
<path d="M169.564 38.9893H169.987V40.6881H171.32C172.245 40.6881 173.025 41.0785 173.025 41.9894C173.026 42.1948 172.984 42.3981 172.9 42.5859C172.816 42.7737 172.693 42.9416 172.538 43.0784C172.384 43.2152 172.202 43.3177 172.004 43.3793C171.807 43.4408 171.598 43.4599 171.393 43.4352H169.564V38.9893ZM171.327 43.0304C172.056 43.0304 172.559 42.6617 172.559 42.0111C172.559 41.3605 172.071 41.0424 171.269 41.0424H169.965V43.0015L171.327 43.0304ZM173.914 38.9893H174.343V43.4136H173.914V38.9893Z" fill="black"/>
<path d="M176.105 38.9893H176.535V41.8231L179.296 38.9893H179.865L177.919 40.9484L179.923 43.4136H179.384L177.621 41.2448L176.535 42.3292V43.4063H176.105V38.9893Z" fill="black"/>
<path d="M180.738 44.6577L180.884 44.2818C181.109 44.3956 181.359 44.4527 181.612 44.4481C182.071 44.4481 182.377 44.1806 182.712 43.4071L180.57 39.0117H181.066L182.923 42.9661L184.526 39.0117H185L183.069 43.595C182.676 44.5204 182.224 44.8457 181.612 44.8457C181.31 44.8495 181.011 44.7852 180.738 44.6577Z" fill="black"/>
</svg>
