<svg width="264" height="509" viewBox="0 0 264 509" fill="none" xmlns="http://www.w3.org/2000/svg">
<path d="M-36.6045 0.212646C-36.6045 0.212646 6.68049 76.6009 113.617 63.0146C233.518 47.7862 285.055 136.008 255.348 196.267C225.641 256.525 93.6928 269.26 112.137 366.858C130.589 464.464 -29.8242 508.592 -29.8242 508.592" stroke="#E5E5E5" stroke-miterlimit="10"/>
<path d="M-68.8555 88.4773C-68.8555 88.4773 22.5466 121.58 113.489 109.695C204.432 97.81 215.066 151.228 204.432 172.497C182.364 216.633 64.3939 225.115 56.7543 296.408C51.0119 349.996 96.6449 422.02 -6.89704 460.21" stroke="#E5E5E5" stroke-miterlimit="10"/>
<path d="M-28.1142 124.124C-28.1142 124.124 65.3126 112.205 48.6298 164.866C29.514 225.226 -15.3874 224.273 27.0469 300.662C42.1388 327.834 46.571 437.308 -36.6045 415.24" stroke="#E5E5E5" stroke-miterlimit="10"/>
<path d="M130.163 185.232C153.364 185.232 172.172 174.971 172.172 162.313C172.172 149.655 153.364 139.394 130.163 139.394C106.962 139.394 88.1543 149.655 88.1543 162.313C88.1543 174.971 106.962 185.232 130.163 185.232Z" stroke="#E5E5E5" stroke-miterlimit="10"/>
</svg>
