<svg width="138" height="152" viewBox="0 0 138 152" fill="none" xmlns="http://www.w3.org/2000/svg">
<path d="M2.47625 0H0V2.47358H2.47625V0Z" fill="#DEDEDE"/>
<path d="M2.47625 14.949H0V17.4226H2.47625V14.949Z" fill="#DEDEDE"/>
<path d="M2.47625 29.91H0V32.3836H2.47625V29.91Z" fill="#DEDEDE"/>
<path d="M2.47625 44.8591H0V47.3327H2.47625V44.8591Z" fill="#DEDEDE"/>
<path d="M2.47625 59.8082H0V62.2817H2.47625V59.8082Z" fill="#DEDEDE"/>
<path d="M2.47625 74.7572H0V77.2308H2.47625V74.7572Z" fill="#DEDEDE"/>
<path d="M2.47625 89.7183H0V92.1918H2.47625V89.7183Z" fill="#DEDEDE"/>
<path d="M2.47625 104.667H0V107.141H2.47625V104.667Z" fill="#DEDEDE"/>
<path d="M2.47625 119.616H0V122.09H2.47625V119.616Z" fill="#DEDEDE"/>
<path d="M2.47625 134.577H0V137.051H2.47625V134.577Z" fill="#DEDEDE"/>
<path d="M2.47625 149.526H0V152H2.47625V149.526Z" fill="#DEDEDE"/>
<path d="M16.03 0H13.5537V2.47358H16.03V0Z" fill="#DEDEDE"/>
<path d="M16.03 14.949H13.5537V17.4226H16.03V14.949Z" fill="#DEDEDE"/>
<path d="M16.03 29.91H13.5537V32.3836H16.03V29.91Z" fill="#DEDEDE"/>
<path d="M16.03 44.8591H13.5537V47.3327H16.03V44.8591Z" fill="#DEDEDE"/>
<path d="M16.03 59.8082H13.5537V62.2817H16.03V59.8082Z" fill="#DEDEDE"/>
<path d="M16.03 74.7572H13.5537V77.2308H16.03V74.7572Z" fill="#DEDEDE"/>
<path d="M16.03 89.7183H13.5537V92.1918H16.03V89.7183Z" fill="#DEDEDE"/>
<path d="M16.03 104.667H13.5537V107.141H16.03V104.667Z" fill="#DEDEDE"/>
<path d="M16.03 119.616H13.5537V122.09H16.03V119.616Z" fill="#DEDEDE"/>
<path d="M16.03 134.577H13.5537V137.051H16.03V134.577Z" fill="#DEDEDE"/>
<path d="M16.03 149.526H13.5537V152H16.03V149.526Z" fill="#DEDEDE"/>
<path d="M29.5837 0H27.1074V2.47358H29.5837V0Z" fill="#DEDEDE"/>
<path d="M29.5837 14.949H27.1074V17.4226H29.5837V14.949Z" fill="#DEDEDE"/>
<path d="M29.5837 29.91H27.1074V32.3836H29.5837V29.91Z" fill="#DEDEDE"/>
<path d="M29.5837 44.8591H27.1074V47.3327H29.5837V44.8591Z" fill="#DEDEDE"/>
<path d="M29.5837 59.8082H27.1074V62.2817H29.5837V59.8082Z" fill="#DEDEDE"/>
<path d="M29.5837 74.7572H27.1074V77.2308H29.5837V74.7572Z" fill="#DEDEDE"/>
<path d="M29.5837 89.7183H27.1074V92.1918H29.5837V89.7183Z" fill="#DEDEDE"/>
<path d="M29.5837 104.667H27.1074V107.141H29.5837V104.667Z" fill="#DEDEDE"/>
<path d="M29.5837 119.616H27.1074V122.09H29.5837V119.616Z" fill="#DEDEDE"/>
<path d="M29.5837 134.577H27.1074V137.051H29.5837V134.577Z" fill="#DEDEDE"/>
<path d="M29.5837 149.526H27.1074V152H29.5837V149.526Z" fill="#DEDEDE"/>
<path d="M43.1374 0H40.6611V2.47358H43.1374V0Z" fill="#DEDEDE"/>
<path d="M43.1374 14.949H40.6611V17.4226H43.1374V14.949Z" fill="#DEDEDE"/>
<path d="M43.1374 29.91H40.6611V32.3836H43.1374V29.91Z" fill="#DEDEDE"/>
<path d="M43.1374 44.8591H40.6611V47.3327H43.1374V44.8591Z" fill="#DEDEDE"/>
<path d="M43.1374 59.8082H40.6611V62.2817H43.1374V59.8082Z" fill="#DEDEDE"/>
<path d="M43.1374 74.7572H40.6611V77.2308H43.1374V74.7572Z" fill="#DEDEDE"/>
<path d="M43.1374 89.7183H40.6611V92.1918H43.1374V89.7183Z" fill="#DEDEDE"/>
<path d="M43.1374 104.667H40.6611V107.141H43.1374V104.667Z" fill="#DEDEDE"/>
<path d="M43.1374 119.616H40.6611V122.09H43.1374V119.616Z" fill="#DEDEDE"/>
<path d="M43.1374 134.577H40.6611V137.051H43.1374V134.577Z" fill="#DEDEDE"/>
<path d="M43.1374 149.526H40.6611V152H43.1374V149.526Z" fill="#DEDEDE"/>
<path d="M56.6901 0H54.2139V2.47358H56.6901V0Z" fill="#DEDEDE"/>
<path d="M56.6901 14.949H54.2139V17.4226H56.6901V14.949Z" fill="#DEDEDE"/>
<path d="M56.6901 29.91H54.2139V32.3836H56.6901V29.91Z" fill="#DEDEDE"/>
<path d="M56.6901 44.8591H54.2139V47.3327H56.6901V44.8591Z" fill="#DEDEDE"/>
<path d="M56.6901 59.8082H54.2139V62.2817H56.6901V59.8082Z" fill="#DEDEDE"/>
<path d="M56.6901 74.7572H54.2139V77.2308H56.6901V74.7572Z" fill="#DEDEDE"/>
<path d="M56.6901 89.7183H54.2139V92.1918H56.6901V89.7183Z" fill="#DEDEDE"/>
<path d="M56.6901 104.667H54.2139V107.141H56.6901V104.667Z" fill="#DEDEDE"/>
<path d="M56.6901 119.616H54.2139V122.09H56.6901V119.616Z" fill="#DEDEDE"/>
<path d="M56.6901 134.577H54.2139V137.051H56.6901V134.577Z" fill="#DEDEDE"/>
<path d="M56.6901 149.526H54.2139V152H56.6901V149.526Z" fill="#DEDEDE"/>
<path d="M70.2438 0H67.7676V2.47358H70.2438V0Z" fill="#DEDEDE"/>
<path d="M70.2438 14.949H67.7676V17.4226H70.2438V14.949Z" fill="#DEDEDE"/>
<path d="M70.2438 29.91H67.7676V32.3836H70.2438V29.91Z" fill="#DEDEDE"/>
<path d="M70.2438 44.8591H67.7676V47.3327H70.2438V44.8591Z" fill="#DEDEDE"/>
<path d="M70.2438 59.8082H67.7676V62.2817H70.2438V59.8082Z" fill="#DEDEDE"/>
<path d="M70.2438 74.7572H67.7676V77.2308H70.2438V74.7572Z" fill="#DEDEDE"/>
<path d="M70.2438 89.7183H67.7676V92.1918H70.2438V89.7183Z" fill="#DEDEDE"/>
<path d="M70.2438 104.667H67.7676V107.141H70.2438V104.667Z" fill="#DEDEDE"/>
<path d="M70.2438 119.616H67.7676V122.09H70.2438V119.616Z" fill="#DEDEDE"/>
<path d="M70.2438 134.577H67.7676V137.051H70.2438V134.577Z" fill="#DEDEDE"/>
<path d="M70.2438 149.526H67.7676V152H70.2438V149.526Z" fill="#DEDEDE"/>
<path d="M83.7975 0H81.3213V2.47358H83.7975V0Z" fill="#DEDEDE"/>
<path d="M83.7975 14.949H81.3213V17.4226H83.7975V14.949Z" fill="#DEDEDE"/>
<path d="M83.7975 29.91H81.3213V32.3836H83.7975V29.91Z" fill="#DEDEDE"/>
<path d="M83.7975 44.8591H81.3213V47.3327H83.7975V44.8591Z" fill="#DEDEDE"/>
<path d="M83.7975 59.8082H81.3213V62.2817H83.7975V59.8082Z" fill="#DEDEDE"/>
<path d="M83.7975 74.7572H81.3213V77.2308H83.7975V74.7572Z" fill="#DEDEDE"/>
<path d="M83.7975 89.7183H81.3213V92.1918H83.7975V89.7183Z" fill="#DEDEDE"/>
<path d="M83.7975 104.667H81.3213V107.141H83.7975V104.667Z" fill="#DEDEDE"/>
<path d="M83.7975 119.616H81.3213V122.09H83.7975V119.616Z" fill="#DEDEDE"/>
<path d="M83.7975 134.577H81.3213V137.051H83.7975V134.577Z" fill="#DEDEDE"/>
<path d="M83.7975 149.526H81.3213V152H83.7975V149.526Z" fill="#DEDEDE"/>
<path d="M97.3512 0H94.875V2.47358H97.3512V0Z" fill="#DEDEDE"/>
<path d="M97.3512 14.949H94.875V17.4226H97.3512V14.949Z" fill="#DEDEDE"/>
<path d="M97.3512 29.91H94.875V32.3836H97.3512V29.91Z" fill="#DEDEDE"/>
<path d="M97.3512 44.8591H94.875V47.3327H97.3512V44.8591Z" fill="#DEDEDE"/>
<path d="M97.3512 59.8082H94.875V62.2817H97.3512V59.8082Z" fill="#DEDEDE"/>
<path d="M97.3512 74.7572H94.875V77.2308H97.3512V74.7572Z" fill="#DEDEDE"/>
<path d="M97.3512 89.7183H94.875V92.1918H97.3512V89.7183Z" fill="#DEDEDE"/>
<path d="M97.3512 104.667H94.875V107.141H97.3512V104.667Z" fill="#DEDEDE"/>
<path d="M97.3512 119.616H94.875V122.09H97.3512V119.616Z" fill="#DEDEDE"/>
<path d="M97.3512 134.577H94.875V137.051H97.3512V134.577Z" fill="#DEDEDE"/>
<path d="M97.3512 149.526H94.875V152H97.3512V149.526Z" fill="#DEDEDE"/>
<path d="M110.893 0H108.417V2.47358H110.893V0Z" fill="#DEDEDE"/>
<path d="M110.893 14.949H108.417V17.4226H110.893V14.949Z" fill="#DEDEDE"/>
<path d="M110.893 29.91H108.417V32.3836H110.893V29.91Z" fill="#DEDEDE"/>
<path d="M110.893 44.8591H108.417V47.3327H110.893V44.8591Z" fill="#DEDEDE"/>
<path d="M110.893 59.8082H108.417V62.2817H110.893V59.8082Z" fill="#DEDEDE"/>
<path d="M110.893 74.7572H108.417V77.2308H110.893V74.7572Z" fill="#DEDEDE"/>
<path d="M110.893 89.7183H108.417V92.1918H110.893V89.7183Z" fill="#DEDEDE"/>
<path d="M110.893 104.667H108.417V107.141H110.893V104.667Z" fill="#DEDEDE"/>
<path d="M110.893 119.616H108.417V122.09H110.893V119.616Z" fill="#DEDEDE"/>
<path d="M110.893 134.577H108.417V137.051H110.893V134.577Z" fill="#DEDEDE"/>
<path d="M110.893 149.526H108.417V152H110.893V149.526Z" fill="#DEDEDE"/>
<path d="M124.446 0H121.97V2.47358H124.446V0Z" fill="#DEDEDE"/>
<path d="M124.446 14.949H121.97V17.4226H124.446V14.949Z" fill="#DEDEDE"/>
<path d="M124.446 29.91H121.97V32.3836H124.446V29.91Z" fill="#DEDEDE"/>
<path d="M124.446 44.8591H121.97V47.3327H124.446V44.8591Z" fill="#DEDEDE"/>
<path d="M124.446 59.8082H121.97V62.2817H124.446V59.8082Z" fill="#DEDEDE"/>
<path d="M124.446 74.7572H121.97V77.2308H124.446V74.7572Z" fill="#DEDEDE"/>
<path d="M124.446 89.7183H121.97V92.1918H124.446V89.7183Z" fill="#DEDEDE"/>
<path d="M124.446 104.667H121.97V107.141H124.446V104.667Z" fill="#DEDEDE"/>
<path d="M124.446 119.616H121.97V122.09H124.446V119.616Z" fill="#DEDEDE"/>
<path d="M124.446 134.577H121.97V137.051H124.446V134.577Z" fill="#DEDEDE"/>
<path d="M124.446 149.526H121.97V152H124.446V149.526Z" fill="#DEDEDE"/>
<path d="M138 0H135.523V2.47358H138V0Z" fill="#DEDEDE"/>
<path d="M138 14.949H135.523V17.4226H138V14.949Z" fill="#DEDEDE"/>
<path d="M138 29.91H135.523V32.3836H138V29.91Z" fill="#DEDEDE"/>
<path d="M138 44.8591H135.523V47.3327H138V44.8591Z" fill="#DEDEDE"/>
<path d="M138 59.8082H135.523V62.2817H138V59.8082Z" fill="#DEDEDE"/>
<path d="M138 74.7572H135.523V77.2308H138V74.7572Z" fill="#DEDEDE"/>
<path d="M138 89.7183H135.523V92.1918H138V89.7183Z" fill="#DEDEDE"/>
<path d="M138 104.667H135.523V107.141H138V104.667Z" fill="#DEDEDE"/>
<path d="M138 119.616H135.523V122.09H138V119.616Z" fill="#DEDEDE"/>
<path d="M138 134.577H135.523V137.051H138V134.577Z" fill="#DEDEDE"/>
<path d="M138 149.526H135.523V152H138V149.526Z" fill="#DEDEDE"/>
</svg>
