<svg width="20" height="21" viewBox="0 0 20 21" fill="none" xmlns="http://www.w3.org/2000/svg">
<path fill-rule="evenodd" clip-rule="evenodd" d="M20 8.64708C20 8.81688 19.8687 8.9547 19.707 8.9547H19.577V19.2217H19.707C19.8687 19.2217 20 19.3595 20 19.5293V20.6924C20 20.8622 19.8687 21 19.707 21H0.292969C0.13125 21 0 20.8622 0 20.6924V19.5293C0 19.3595 0.13125 19.2217 0.292969 19.2217H0.423125V12.5059C0.423125 12.3359 0.554297 12.1983 0.716094 12.1983C0.877891 12.1983 1.00906 12.3359 1.00906 12.5059V19.222H4.8168V8.9547H1.00906V10.9787C1.00906 11.1485 0.877891 11.2863 0.716094 11.2863C0.554297 11.2863 0.423125 11.1485 0.423125 10.9787V8.9547H0.292969C0.13125 8.9547 0 8.81688 0 8.64708V7.53966C0 7.36985 0.13125 7.23204 0.292969 7.23204H4.8168V5.78985H4.36703C4.20516 5.78985 4.07406 5.65236 4.07406 5.48223V4.37514C4.07406 4.20509 4.20516 4.06752 4.36703 4.06752H6.98047V0.307617C6.98047 0.137813 7.27344 0 7.27344 0H12.7266C12.8884 0 13.0195 0.137813 13.0195 0.307617V4.06719H15.6329C15.7948 4.06719 15.9259 4.20509 15.9259 4.37481V5.48223C15.9259 5.65236 15.7948 5.78985 15.6329 5.78985H15.1832V7.23204H16.4712C16.6332 7.23204 16.7641 7.36985 16.7641 7.53966C16.7641 7.70946 16.6332 7.84727 16.4712 7.84727H15.1832V8.33946H19.4141V7.84727H17.9297C17.768 7.84727 17.6367 7.70946 17.6367 7.53966C17.6367 7.36985 17.768 7.23204 17.9297 7.23204H19.707C19.8687 7.23204 20 7.36985 20 7.53966V8.64708ZM9.50609 4.37514C9.50609 4.54494 9.37484 4.68275 9.21313 4.68275H4.66V5.17461H15.3399V4.68275H10.8723C10.7105 4.68275 10.5794 4.54494 10.5794 4.37514C10.5794 4.20509 10.7105 4.06752 10.8723 4.06752H12.4336V0.615234H7.56641V4.06752H9.21313C9.37484 4.06752 9.50609 4.20509 9.50609 4.37514ZM12.6172 14.0479C12.7789 14.0479 12.9102 14.1857 12.9102 14.3555V19.2217H14.5973V5.78985H5.40273V19.2217H7.08984V14.3555C7.08984 14.1857 7.22109 14.0479 7.38281 14.0479H12.6172ZM18.991 19.2217L18.9907 8.9547H15.1832V19.2217H18.991ZM4.8168 7.84727H0.585938V8.33946H4.8168V7.84727ZM7.67578 14.6631V19.2217H9.70703V14.6631H7.67578ZM12.3242 14.6631H10.293V19.2217H12.3242V14.6631ZM0.585938 20.3848H19.4141V19.837H0.585938V20.3848Z" fill="#2F2F2F" fill-opacity="0.5"/>
</svg>
