<svg width="16" height="22" viewBox="0 0 16 22" fill="none" xmlns="http://www.w3.org/2000/svg">
<path d="M0.180664 14.9088C0.180664 19.0724 3.80248 21.7763 3.95668 21.8894C4.40873 22.2208 4.99446 21.7517 4.84495 21.1761C3.92637 17.6396 4.03042 13.9656 6.5092 11.4739C6.20706 12.6986 6.28732 13.696 6.74897 14.4418C7.63795 15.878 9.61313 15.8431 11.1697 15.586C12.3745 16.7551 11.515 19.4653 10.7879 21.0649C10.5197 21.655 11.1416 22.2525 11.6369 21.8893C14.2622 19.9641 15.6655 17.5473 15.8077 14.7061C16.0677 9.50936 11.7338 3.43686 8.17326 0.151472C7.79304 -0.199403 7.21086 0.0984131 7.21086 0.645197C7.21086 4.26565 5.49681 6.03425 3.68215 7.90673C1.96072 9.68301 0.180664 11.5197 0.180664 14.9088ZM8.30226 2.02245C11.2712 5.13882 14.8637 10.1433 14.6376 14.6374C14.5505 16.3679 13.894 17.9268 12.681 19.2926C13.6312 15.522 11.6728 14.3868 11.5738 14.3323C11.4631 14.2714 11.3376 14.2507 11.2155 14.2731C9.36363 14.6126 8.15428 14.4205 7.71813 13.7175C7.11294 12.7422 7.95567 10.718 8.2991 10.0848C8.58714 9.55679 8.09862 8.92649 7.57917 9.15487C5.79247 9.94113 2.34289 13.1048 3.31642 19.5827C2.40769 18.5406 1.35237 16.9013 1.35237 14.9088C1.35237 12.0779 2.80353 10.5805 4.48379 8.84675C6.09879 7.18032 7.90427 5.31703 8.30226 2.02245Z" fill="#2F2F2F" fill-opacity="0.5"/>
</svg>
