<svg width="268" height="267" viewBox="0 0 268 267" fill="none" xmlns="http://www.w3.org/2000/svg">
<path d="M133.636 266.624C207.172 266.624 266.785 207.047 266.785 133.555C266.785 60.0631 207.172 0.486084 133.636 0.486084C60.0993 0.486084 0.486328 60.0631 0.486328 133.555C0.486328 207.047 60.0993 266.624 133.636 266.624Z" stroke="#E3E3E3" stroke-width="0.7041" stroke-miterlimit="10"/>
<path d="M133.636 257.012C201.861 257.012 257.168 201.739 257.168 133.555C257.168 65.3717 201.861 10.0981 133.636 10.0981C65.4115 10.0981 10.1045 65.3717 10.1045 133.555C10.1045 201.739 65.4115 257.012 133.636 257.012Z" stroke="#E3E3E3" stroke-width="0.6883" stroke-miterlimit="10"/>
<path d="M133.636 247.4C196.548 247.4 247.549 196.43 247.549 133.555C247.549 70.6801 196.548 19.71 133.636 19.71C70.7227 19.71 19.7217 70.6801 19.7217 133.555C19.7217 196.43 70.7227 247.4 133.636 247.4Z" stroke="#E3E3E3" stroke-width="0.6725" stroke-miterlimit="10"/>
<path d="M133.636 237.788C191.237 237.788 237.932 191.122 237.932 133.555C237.932 75.9888 191.237 29.322 133.636 29.322C76.0348 29.322 29.3398 75.9888 29.3398 133.555C29.3398 191.122 76.0348 237.788 133.636 237.788Z" stroke="#E3E3E3" stroke-width="0.6567" stroke-miterlimit="10"/>
<path d="M133.636 228.163C185.917 228.163 228.3 185.806 228.3 133.555C228.3 81.3048 185.917 38.9475 133.636 38.9475C81.3536 38.9475 38.9707 81.3048 38.9707 133.555C38.9707 185.806 81.3536 228.163 133.636 228.163Z" stroke="#E3E3E3" stroke-width="0.6408" stroke-miterlimit="10"/>
<path d="M133.636 218.551C180.606 218.551 218.683 180.497 218.683 133.555C218.683 86.6134 180.606 48.5596 133.636 48.5596C86.6657 48.5596 48.5889 86.6134 48.5889 133.555C48.5889 180.497 86.6657 218.551 133.636 218.551Z" stroke="#E3E3E3" stroke-width="0.625" stroke-miterlimit="10"/>
<path d="M133.635 208.939C175.294 208.939 209.065 175.188 209.065 133.555C209.065 91.9218 175.294 58.1714 133.635 58.1714C91.9769 58.1714 58.2061 91.9218 58.2061 133.555C58.2061 175.188 91.9769 208.939 133.635 208.939Z" stroke="#E3E3E3" stroke-width="0.6092" stroke-miterlimit="10"/>
<path d="M199.45 133.962C199.681 97.6371 170.403 68.0031 134.057 67.7724C97.7099 67.5417 68.058 96.8017 67.8271 133.126C67.5963 169.451 96.874 199.085 133.221 199.316C169.567 199.547 199.219 170.287 199.45 133.962Z" stroke="#E3E3E3" stroke-width="0.5933" stroke-miterlimit="10"/>
<path d="M189.817 133.685C189.894 102.677 164.803 77.477 133.776 77.4002C102.748 77.3235 77.5331 102.399 77.4564 133.408C77.3796 164.416 102.47 189.616 133.498 189.693C164.525 189.77 189.74 164.694 189.817 133.685Z" stroke="#E3E3E3" stroke-width="0.5775" stroke-miterlimit="10"/>
<path d="M133.71 180.089C159.425 180.049 180.239 159.181 180.198 133.481C180.157 107.781 159.277 86.9799 133.561 87.0207C107.846 87.0616 87.0322 107.929 87.0731 133.629C87.114 159.329 107.994 180.13 133.71 180.089Z" stroke="#E3E3E3" stroke-width="0.5617" stroke-miterlimit="10"/>
<path d="M133.855 170.48C154.259 170.36 170.703 153.733 170.583 133.341C170.464 112.949 153.826 96.5156 133.422 96.6349C113.018 96.7543 96.5744 113.382 96.6938 133.773C96.8133 154.165 113.451 170.599 133.855 170.48Z" stroke="#E3E3E3" stroke-width="0.5459" stroke-miterlimit="10"/>
<path d="M133.907 160.861C148.997 160.705 161.105 148.353 160.949 133.272C160.794 118.19 148.434 106.09 133.344 106.245C118.253 106.401 106.146 118.753 106.301 133.834C106.456 148.916 118.816 161.016 133.907 160.861Z" stroke="#E3E3E3" stroke-width="0.53" stroke-miterlimit="10"/>
<path d="M133.898 151.245C143.67 151.099 151.473 143.063 151.326 133.297C151.179 123.531 143.139 115.733 133.367 115.879C123.595 116.026 115.792 124.061 115.938 133.827C116.085 143.594 124.126 151.392 133.898 151.245Z" stroke="#E3E3E3" stroke-width="0.5142" stroke-miterlimit="10"/>
<path d="M133.798 141.626C138.258 141.537 141.802 137.851 141.712 133.393C141.623 128.936 137.935 125.394 133.475 125.483C129.014 125.572 125.471 129.258 125.56 133.716C125.649 138.174 129.337 141.715 133.798 141.626Z" stroke="#E3E3E3" stroke-width="0.4984" stroke-miterlimit="10"/>
</svg>
