<svg width="178" height="177" viewBox="0 0 178 177" fill="none" xmlns="http://www.w3.org/2000/svg">
<path d="M88.9869 5.78857L117.322 20.1426L133.228 12.0873C130.657 10.6067 128.01 9.2767 125.288 8.07216L117.322 12.1124L94.5833 0.56892C92.7178 0.443447 90.8776 0.368164 88.9869 0.368164C87.0962 0.368164 85.256 0.443447 83.3905 0.56892L60.6521 12.0873L52.7113 8.07216C49.9887 9.2767 47.3418 10.6318 44.7705 12.1124L60.6521 20.1677L88.9869 5.78857Z" fill="#F5F5F5"/>
<path d="M60.6525 38.4115L88.9873 24.0575L117.322 38.4115L145.657 24.0575L153.673 28.1228C150.094 24.3587 146.237 20.9207 142.052 17.8341L117.322 30.3813L88.9873 16.0022L60.6778 30.3562L35.973 17.8341C31.8136 20.9207 27.9314 24.3587 24.377 28.0977L32.343 24.0575L60.6525 38.4115Z" fill="#F5F5F5"/>
<path d="M60.6527 56.6803L88.9623 42.3263L117.297 56.6803L145.632 42.3263L171.345 55.3503C169.807 51.6363 168.017 48.0478 166.001 44.5848L145.632 34.2458L117.297 48.5999L88.9875 34.2458L60.6779 48.5999L32.3431 34.2458L11.9996 44.5597C9.98285 47.9976 8.19302 51.5861 6.65527 55.3252L32.3431 42.3012L60.6527 56.6803Z" fill="#F5F5F5"/>
<path d="M32.3429 60.57L60.6777 74.924L88.9873 60.57L117.322 74.924L145.657 60.57L173.992 74.924L176.664 73.5689C176.235 71.1096 175.706 68.7006 175.076 66.3166L173.992 66.8687L145.657 52.5146L117.297 66.8687L88.9873 52.5146L60.6525 66.8687L32.3177 52.5146L4.00808 66.8687L2.9241 66.3166C2.29388 68.7006 1.76449 71.1096 1.33594 73.5689L3.98287 74.924L32.3429 60.57Z" fill="#F5F5F5"/>
<path d="M177.798 83.205L173.967 85.1372L145.632 70.7832L117.297 85.1372L88.9874 70.7832L60.6778 85.1372L32.343 70.7832L4.00821 85.1372L0.201671 83.205C0.0756267 85.1121 0 87.0193 0 88.9516C0 89.7044 0.0504178 90.4322 0.0504178 91.185L4.00821 93.1926L32.3178 78.8385L60.6526 93.1926L88.9622 78.8385L117.297 93.1926L145.632 78.8385L173.967 93.1926L177.95 91.185C177.975 90.4322 178 89.7044 178 88.9516C178 87.0193 177.924 85.1121 177.798 83.205Z" fill="#F5F5F5"/>
<path d="M145.632 89.052L117.297 103.406L88.9873 89.052L60.6777 103.406L32.3429 89.052L4.0081 103.406L0.932617 101.85C1.38638 104.887 1.96618 107.873 2.72245 110.809L4.0081 111.461L32.3177 97.1073L60.6525 111.461L88.9621 97.1073L117.297 111.461L145.632 97.1073L173.966 111.461L175.277 110.809C176.034 107.873 176.613 104.887 177.067 101.85L173.992 103.406L145.632 89.052Z" fill="#F5F5F5"/>
<path d="M117.297 121.675L88.9869 107.296L60.6774 121.65L32.3426 107.296L5.89844 120.721C6.75554 122.98 7.68827 125.188 8.74704 127.346L32.3426 115.376L60.6774 129.73L88.9869 115.376L117.322 129.73L145.657 115.376L169.277 127.346C170.311 125.188 171.244 122.98 172.126 120.747L145.682 107.346L117.297 121.675Z" fill="#F5F5F5"/>
<path d="M117.297 139.918L88.9874 125.564L60.6778 139.918L32.343 125.564L13.1338 135.301C14.3942 137.359 15.7555 139.366 17.1924 141.299L32.3178 133.62L60.6526 147.974L88.9874 133.62L117.322 147.974L145.657 133.62L160.808 141.299C162.244 139.366 163.606 137.359 164.866 135.301L145.657 125.564L117.297 139.918Z" fill="#F5F5F5"/>
<path d="M117.297 158.187L88.987 143.833L60.6775 158.187L32.3427 143.833L23.1162 148.526C24.8052 150.383 26.595 152.165 28.4605 153.871L32.3679 151.889L60.7027 166.243L89.0122 151.889L117.347 166.243L145.682 151.889L149.589 153.871C151.455 152.165 153.244 150.383 154.933 148.526L145.682 143.833L117.297 158.187Z" fill="#F5F5F5"/>
<path d="M64.9883 174.273C68.6436 175.302 72.3745 176.08 76.2062 176.632L88.9871 170.157L101.793 176.632C105.625 176.08 109.356 175.277 113.011 174.273L88.9871 162.102L64.9883 174.273Z" fill="#F5F5F5"/>
</svg>
