<svg width="240" height="239" viewBox="0 0 240 239" fill="none" xmlns="http://www.w3.org/2000/svg">
<path d="M182.042 80.3713L186.571 80.3869L186.571 75.6866L191.271 75.6866L191.271 71.142L186.571 71.142L186.571 66.4417L182.027 66.4417L182.027 71.142L177.326 71.142L177.342 75.6711L182.042 75.6711L182.042 80.3713Z" fill="#EFEFEF"/>
<path d="M182.042 103.281L186.556 103.281L186.556 98.581L191.256 98.581L191.271 94.0519L186.571 94.0519L186.571 89.3517H182.027L182.027 94.0519L177.326 94.0519L177.342 98.581L182.042 98.581L182.042 103.281Z" fill="#EFEFEF"/>
<path d="M182.042 126.191L186.571 126.175L186.571 121.475L191.271 121.475L191.271 116.962L186.571 116.962L186.571 112.261L182.042 112.246L182.042 116.946L177.342 116.946L177.342 121.491L182.042 121.491L182.042 126.191Z" fill="#EFEFEF"/>
<path d="M182.042 149.101L186.571 149.085L186.571 144.385L191.271 144.385L191.271 139.872L186.571 139.872L186.571 135.171L182.042 135.156L182.042 139.856L177.342 139.856L177.342 144.401L182.042 144.401L182.042 149.101Z" fill="#EFEFEF"/>
<path d="M182.027 171.995L186.571 171.995L186.571 167.295L191.271 167.295L191.256 162.766L186.571 162.781L186.571 158.081L182.042 158.066L182.042 162.766L177.342 162.766L177.342 167.31L182.042 167.31L182.027 171.995Z" fill="#EFEFEF"/>
<path d="M156.361 80.3714L160.906 80.3714L160.906 75.6711L165.606 75.6711L165.591 71.1421L160.891 71.1421L160.891 66.4418L156.377 66.4418L156.377 71.1421L151.677 71.1421L151.661 75.6711L156.361 75.6711L156.361 80.3714Z" fill="#EFEFEF"/>
<path d="M156.361 103.281L160.906 103.281L160.906 98.5812L165.606 98.5812L165.591 94.0521L160.891 94.0521L160.891 89.3518L156.377 89.3518L156.361 94.0365L151.677 94.0521L151.661 98.5812L156.361 98.5812L156.361 103.281Z" fill="#EFEFEF"/>
<path d="M156.361 126.191L160.906 126.191L160.906 121.491L165.606 121.491L165.606 116.946H160.906L160.906 112.246L156.361 112.246L156.361 116.946L151.661 116.946L151.661 121.491L156.361 121.491L156.361 126.191Z" fill="#EFEFEF"/>
<path d="M156.361 149.101L160.906 149.101L160.906 144.401L165.606 144.401L165.606 139.856L160.906 139.856L160.906 135.156L156.361 135.156V139.856L151.661 139.856L151.661 144.401L156.361 144.401L156.361 149.101Z" fill="#EFEFEF"/>
<path d="M156.361 172.011L160.891 171.995L160.906 167.311L165.591 167.295L165.606 162.766L160.906 162.766L160.906 158.066L156.361 158.066L156.361 162.766L151.661 162.766L151.661 167.311L156.361 167.311L156.361 172.011Z" fill="#EFEFEF"/>
<path d="M130.696 80.3869L135.225 80.3713L135.225 75.6711L139.926 75.6711L139.941 71.142L135.241 71.142L135.241 66.4417L130.696 66.4417L130.696 71.142L125.996 71.142L125.996 75.6866L130.696 75.6866L130.696 80.3869Z" fill="#EFEFEF"/>
<path d="M130.681 103.281L135.225 103.281L135.226 98.5811L139.926 98.5811L139.926 94.0365L135.226 94.0365L135.241 89.3518L130.696 89.3518L130.696 94.052L125.996 94.052L125.996 98.5967L130.681 98.5811L130.681 103.281Z" fill="#EFEFEF"/>
<path d="M130.696 126.175L135.226 126.191L135.226 121.491L139.926 121.491L139.926 116.946L135.225 116.946L135.226 112.246L130.696 112.261L130.696 116.962L125.996 116.962L125.996 121.475L130.696 121.475L130.696 126.175Z" fill="#EFEFEF"/>
<path d="M130.696 149.085L135.225 149.101L135.225 144.401L139.926 144.401L139.926 139.856L135.225 139.856L135.225 135.156L130.696 135.171L130.696 139.872L125.996 139.872L125.996 144.385L130.696 144.385L130.696 149.085Z" fill="#EFEFEF"/>
<path d="M130.696 171.995L135.226 172.011L135.225 167.31L139.926 167.31L139.926 162.766L135.226 162.766L135.225 158.066L130.696 158.081L130.696 162.781L125.996 162.781L125.996 167.295L130.696 167.295L130.696 171.995Z" fill="#EFEFEF"/>
<path d="M105.032 80.3713L109.546 80.3713L109.561 75.6866L114.262 75.6866L114.262 71.142L109.561 71.142V66.4417L105.017 66.4417L105.017 71.142L100.316 71.142L100.332 75.6711L105.032 75.6711L105.032 80.3713Z" fill="#EFEFEF"/>
<path d="M105.032 103.281L109.561 103.266L109.546 98.5811L114.246 98.5811L114.262 94.052L109.561 94.052L109.561 89.3518L105.017 89.3518L105.017 94.052L100.332 94.0365L100.332 98.5811L105.032 98.5811L105.032 103.281Z" fill="#EFEFEF"/>
<path d="M105.032 126.191L109.561 126.175L109.561 121.475L114.246 121.491L114.262 116.962L109.561 116.962L109.561 112.261L105.017 112.261L105.032 116.946L100.332 116.946L100.332 121.491L105.032 121.491L105.032 126.191Z" fill="#EFEFEF"/>
<path d="M105.032 149.101L109.561 149.085L109.561 144.385L114.262 144.385L114.262 139.872L109.561 139.872L109.561 135.171L105.032 135.156L105.032 139.856L100.332 139.856L100.332 144.401L105.032 144.401L105.032 149.101Z" fill="#EFEFEF"/>
<path d="M105.017 171.995L109.561 171.995L109.561 167.295L114.262 167.295L114.246 162.766L109.561 162.781L109.561 158.081L105.032 158.066L105.032 162.766L100.332 162.766L100.332 167.31L105.032 167.31L105.017 171.995Z" fill="#EFEFEF"/>
<path d="M79.3517 80.3714L83.8963 80.3714L83.8963 75.6711L88.5966 75.6711L88.581 71.1421H83.8808L83.8808 66.4418L79.3673 66.4418L79.3673 71.1421L74.667 71.1421L74.6514 75.6711L79.3517 75.6711L79.3517 80.3714Z" fill="#EFEFEF"/>
<path d="M79.3517 103.281L83.8963 103.281L83.8963 98.5812L88.5966 98.5812L88.581 94.0521L83.8808 94.0521L83.8808 89.3518L79.3673 89.3518L79.3673 94.0521L74.667 94.0521L74.6514 98.5812L79.3517 98.5812L79.3517 103.281Z" fill="#EFEFEF"/>
<path d="M79.3517 126.191L83.8963 126.191L83.8963 121.491L88.5965 121.491L88.581 116.962L83.8963 116.946L83.8807 112.262L79.3517 112.246L79.3517 116.946L74.6514 116.946L74.6514 121.491L79.3517 121.491L79.3517 126.191Z" fill="#EFEFEF"/>
<path d="M79.3517 149.101L83.8963 149.101L83.8963 144.401L88.5966 144.401L88.5966 139.856L83.8963 139.856L83.8963 135.156L79.3517 135.156L79.3517 139.856L74.6515 139.856L74.6515 144.401L79.3517 144.401L79.3517 149.101Z" fill="#EFEFEF"/>
<path d="M79.3517 172.011L83.8808 171.995L83.8808 167.295L88.581 167.295L88.5966 162.766L83.8963 162.766L83.8963 158.066L79.3517 158.066L79.3517 162.766L74.6514 162.766L74.6514 167.311L79.3517 167.311L79.3517 172.011Z" fill="#EFEFEF"/>
<path d="M53.6867 80.3869L58.2157 80.3713L58.2157 75.6711L62.916 75.6711L62.9316 71.142L58.2313 71.142L58.2313 66.4417L53.6867 66.4417L53.6867 71.142L48.9864 71.142L48.9864 75.6866L53.6867 75.6866L53.6867 80.3869Z" fill="#EFEFEF"/>
<path d="M53.6867 103.266L58.2157 103.281L58.2157 98.581L62.916 98.581L62.916 94.0364L58.2157 94.0364L58.2313 89.3517L53.6867 89.3517L53.6867 94.0519L48.9864 94.0519L49.002 98.581L53.6867 98.5965L53.6867 103.266Z" fill="#EFEFEF"/>
<path d="M53.6867 126.175L58.2157 126.191L58.2157 121.491L62.916 121.491L62.916 116.946L58.2157 116.946L58.2157 112.246L53.6867 112.261L53.6867 116.962L48.9864 116.962L48.9864 121.475L53.6867 121.475L53.6867 126.175Z" fill="#EFEFEF"/>
<path d="M53.6867 149.085L58.2157 149.101L58.2157 144.401L62.916 144.401L62.916 139.856L58.2157 139.856L58.2157 135.156L53.6867 135.171L53.6867 139.872L48.9864 139.872L48.9864 144.385L53.6867 144.385L53.6867 149.085Z" fill="#EFEFEF"/>
<path d="M53.6867 171.995L58.2157 172.011L58.2157 167.31L62.916 167.31L62.916 162.766L58.2157 162.766L58.2157 158.066L53.6867 158.081L53.6867 162.781L48.9864 162.781L48.9864 167.295L53.6867 167.295L53.6867 171.995Z" fill="#EFEFEF"/>
</svg>
