<svg width="18" height="18" viewBox="0 0 18 18" fill="none" xmlns="http://www.w3.org/2000/svg">
<g clip-path="url(#clip0)">
<path d="M1.54688 12.375H3.93314L8.48749 15.8577C8.63462 15.9703 8.81473 16.0312 9 16.0312H9.84375C10.3097 16.0312 10.6875 15.6535 10.6875 15.1875V2.8125C10.6875 2.3465 10.3097 1.96875 9.84375 1.96875H9C8.81473 1.96875 8.63462 2.02971 8.48746 2.14228L3.93314 5.625H1.54688C0.693914 5.625 0 6.31891 0 7.17188V10.8281C0 11.6811 0.693914 12.375 1.54688 12.375ZM9 3.87468V14.1253L5.0625 11.1143V6.8857L9 3.87468ZM1.6875 7.3125H3.375V10.6875H1.6875V7.3125Z" fill="black" fill-opacity="0.3"/>
<path d="M12.0107 12.6755C12.1731 12.8259 12.3787 12.9002 12.5838 12.9002C12.8106 12.9002 13.0368 12.8093 13.2031 12.6298C14.1201 11.6394 14.6252 10.3503 14.6252 8.99996C14.6252 7.64964 14.1201 6.36053 13.2031 5.37018C12.8865 5.02832 12.3527 5.00771 12.0107 5.32437C11.6688 5.64095 11.6483 6.1748 11.9649 6.51673C12.5922 7.19419 12.9377 8.07609 12.9377 8.99996C12.9377 9.92383 12.5922 10.8057 11.9649 11.4832C11.6483 11.8251 11.6688 12.359 12.0107 12.6755Z" fill="black" fill-opacity="0.3"/>
<path d="M14.8428 15.4192C15.0583 15.4192 15.2739 15.3371 15.4386 15.1729C17.0905 13.5255 18.0002 11.3333 18.0002 9.00005C18.0002 6.6668 17.0905 4.47456 15.4386 2.82717C15.1086 2.49814 14.5744 2.49881 14.2453 2.82882C13.9163 3.15876 13.917 3.693 14.247 4.02203C15.5791 5.35051 16.3127 7.11841 16.3127 9.00005C16.3127 10.8817 15.5791 12.6496 14.247 13.9781C13.917 14.3071 13.9163 14.8414 14.2453 15.1713C14.4102 15.3365 14.6265 15.4192 14.8428 15.4192Z" fill="black" fill-opacity="0.3"/>
</g>
<defs>
<clipPath id="clip0">
<rect width="18" height="18" fill="white"/>
</clipPath>
</defs>
</svg>
