<svg width="99" height="99" viewBox="0 0 99 99" fill="none" xmlns="http://www.w3.org/2000/svg">
<g filter="url(#filter0_d)">
<circle cx="49.5" cy="45.5" r="29.5" fill="#1D9F59"/>
</g>
<path d="M36.2587 46.9195C35.9493 47.2425 35.7988 47.6536 35.8355 48.0786C35.8723 48.5036 36.0904 48.8904 36.4519 49.1666L45.2268 55.9092C45.5527 56.1589 45.9569 56.2928 46.3813 56.2928C46.4334 56.2928 46.4867 56.2906 46.5401 56.2864C47.0201 56.2481 47.4528 56.0431 47.7586 55.7105L62.767 39.3365C63.0681 39.0071 63.2092 38.5927 63.1629 38.1688C63.1155 37.7449 62.8891 37.3624 62.5217 37.0914L59.7741 35.0684C59.0167 34.5117 57.8954 34.6095 57.2719 35.2884L45.721 47.8906L41.0793 44.3259C40.335 43.7564 39.2113 43.8319 38.5724 44.4991L36.2587 46.9195Z" fill="white"/>
<defs>
<filter id="filter0_d" x="0" y="0" width="99" height="99" filterUnits="userSpaceOnUse" color-interpolation-filters="sRGB">
<feFlood flood-opacity="0" result="BackgroundImageFix"/>
<feColorMatrix in="SourceAlpha" type="matrix" values="0 0 0 0 0 0 0 0 0 0 0 0 0 0 0 0 0 0 127 0"/>
<feOffset dy="4"/>
<feGaussianBlur stdDeviation="10"/>
<feColorMatrix type="matrix" values="0 0 0 0 0.113725 0 0 0 0 0.623529 0 0 0 0 0.34902 0 0 0 0.5 0"/>
<feBlend mode="normal" in2="BackgroundImageFix" result="effect1_dropShadow"/>
<feBlend mode="normal" in="SourceGraphic" in2="effect1_dropShadow" result="shape"/>
</filter>
</defs>
</svg>
