<svg width="47" height="58" viewBox="0 0 47 58" fill="none" xmlns="http://www.w3.org/2000/svg">
<path d="M43.4675 0H30.5198C28.9901 0 27.7452 1.24483 27.7452 2.77451V4.62419C25.7051 4.62419 24.0459 6.28335 24.0459 8.32354C24.0459 10.3637 25.7051 12.0229 27.7452 12.0229V16.6471H35.1439V14.7974C35.1439 13.7773 35.9735 12.9477 36.9936 12.9477C38.0137 12.9477 38.8433 13.7773 38.8433 14.7974V16.6471H43.4675C44.9972 16.6471 46.242 15.4022 46.242 13.8726V2.77451C46.242 1.24483 44.9972 0 43.4675 0ZM44.3923 13.8726C44.3923 14.3821 43.978 14.7974 43.4675 14.7974H40.693C40.693 12.7572 39.0338 11.098 36.9936 11.098C34.9534 11.098 33.2943 12.7572 33.2943 14.7974H29.5949V10.1732H27.7452C26.7252 10.1732 25.8956 9.34363 25.8956 8.32354C25.8956 7.30344 26.7252 6.47386 27.7452 6.47386H29.5949V2.77451C29.5949 2.26493 30.0092 1.84967 30.5198 1.84967H43.4675C43.978 1.84967 44.3923 2.26493 44.3923 2.77451V13.8726Z" fill="black" fill-opacity="0.15"/>
<path d="M27.7451 18.4968C25.7049 18.4968 24.0458 20.156 24.0458 22.1961H20.3464V17.572H18.4967C17.4767 17.572 16.6471 16.7424 16.6471 15.7223C16.6471 14.7022 17.4767 13.8726 18.4967 13.8726H20.3464V5.54907H17.8669C8.01557 5.54907 0 13.5646 0 23.416C0 28.7967 2.38886 33.8371 6.5534 37.2442L10.1732 40.2064V42.7137C9.09947 43.0965 8.32354 44.1139 8.32354 45.318C8.32354 46.5971 9.19751 47.6662 10.3767 47.9852C10.2481 48.3043 10.1732 48.6511 10.1732 49.0164C10.1732 50.2391 10.9732 51.2675 12.0728 51.6365C12.4557 54.8438 15.1886 57.34 18.4967 57.34C21.8049 57.34 24.5378 54.8438 24.9207 51.6365C26.0203 51.2675 26.8203 50.2391 26.8203 49.0164C26.8203 48.6511 26.7454 48.3043 26.6168 47.9843C27.796 47.6643 28.67 46.5961 28.67 45.3171C28.67 44.1129 27.894 43.0956 26.8203 42.7127V40.2055L30.4401 37.2432C34.6046 33.8371 36.9935 28.7967 36.9935 23.416V22.1961H31.4445C31.4445 20.156 29.7853 18.4968 27.7451 18.4968ZM17.8669 7.39875H18.4967V12.0229C16.4566 12.0229 14.7974 13.6821 14.7974 15.7223C14.7974 17.7625 16.4566 19.4216 18.4967 19.4216V22.1961H14.7974C14.7974 20.156 13.1382 18.4968 11.098 18.4968C9.05786 18.4968 7.3987 20.156 7.3987 22.1961H1.89592C2.52111 13.9318 9.44536 7.39875 17.8669 7.39875ZM7.72424 35.8125C4.15344 32.891 2.03927 28.6312 1.86262 24.0458H9.24837V22.1961C9.24837 21.1761 10.078 20.3465 11.098 20.3465C12.1181 20.3465 12.9477 21.1761 12.9477 22.1961V24.0458H18.4967V27.7452C16.4566 27.7452 14.7974 29.4043 14.7974 31.4445C14.7974 33.4847 16.4566 35.1439 18.4967 35.1439V42.5426H12.0229V39.3297L7.72424 35.8125ZM18.4967 55.4903C16.2642 55.4903 14.396 53.8986 13.966 51.7909H23.0275C22.5975 53.8986 20.7293 55.4903 18.4967 55.4903ZM24.0458 49.9413H12.9477C12.4372 49.9413 12.0229 49.526 12.0229 49.0164C12.0229 48.5068 12.4372 48.0916 12.9477 48.0916H24.0458C24.5563 48.0916 24.9706 48.5068 24.9706 49.0164C24.9706 49.526 24.5563 49.9413 24.0458 49.9413ZM25.8954 46.2419H24.0458H12.9477H11.098C10.5875 46.2419 10.1732 45.8267 10.1732 45.3171C10.1732 44.8075 10.5875 44.3922 11.098 44.3922H25.8954C26.406 44.3922 26.8203 44.8075 26.8203 45.3171C26.8203 45.8267 26.406 46.2419 25.8954 46.2419ZM29.2693 35.8125L24.9706 39.3297V42.5426H20.3464V33.2942H18.4967C17.4767 33.2942 16.6471 32.4646 16.6471 31.4445C16.6471 30.4244 17.4767 29.5948 18.4967 29.5948H20.3464V24.0458H25.8954V22.1961C25.8954 21.1761 26.725 20.3465 27.7451 20.3465C28.7652 20.3465 29.5948 21.1761 29.5948 22.1961V24.0458H35.1309C34.9542 28.6312 32.84 32.891 29.2693 35.8125Z" fill="black" fill-opacity="0.15"/>
</svg>
