<svg width="55" height="55" viewBox="0 0 55 55" fill="none" xmlns="http://www.w3.org/2000/svg">
<g clip-path="url(#clip0)">
<path d="M5.34273 23.3238C5.41923 23.3238 5.49701 23.3156 5.57479 23.2984C6.41545 23.1133 7.23785 22.8361 8.01921 22.4745L10.8679 21.1561C12.146 20.5646 13.5661 20.2519 14.9744 20.2519C16.4161 20.2519 17.8665 20.5789 19.1688 21.1974C19.7048 21.4519 20.3458 21.2238 20.6002 20.6878C20.8547 20.1518 20.6266 19.511 20.0906 19.2565C18.5021 18.5021 16.733 18.1034 14.9744 18.1034C13.2567 18.1034 11.5246 18.4848 9.96547 19.2063L7.11667 20.5247C6.47615 20.8211 5.8019 21.0485 5.11261 21.2002C4.58071 21.3173 4.21265 21.8336 4.27678 22.3746C4.34017 22.9079 4.80471 23.3238 5.34273 23.3238Z" fill="black" fill-opacity="0.15"/>
<path d="M5.34273 31.2826C5.41923 31.2826 5.49701 31.2745 5.57479 31.2573C6.41567 31.0722 7.23807 30.795 8.01921 30.4335L10.868 29.1151C12.146 28.5235 13.5661 28.2109 14.9744 28.2109C16.4161 28.2109 17.8664 28.5378 19.1688 29.1562C19.7047 29.4107 20.3456 29.1826 20.6002 28.6465C20.8547 28.1106 20.6265 27.4697 20.0905 27.2152C18.502 26.4609 16.7329 26.0621 14.9744 26.0621C13.2565 26.0621 11.5244 26.4435 9.96547 27.165L7.11667 28.4835C6.47626 28.7799 5.80201 29.0071 5.11261 29.1589C4.58071 29.276 4.21265 29.7923 4.27678 30.3333C4.34017 30.8667 4.80471 31.2826 5.34273 31.2826Z" fill="black" fill-opacity="0.15"/>
<path d="M5.34273 39.2416C5.41923 39.2416 5.49701 39.2334 5.57479 39.2162C6.41545 39.0311 7.23785 38.754 8.01921 38.3923L10.8679 37.0739C12.146 36.4824 13.5661 36.1698 14.9744 36.1698C16.416 36.1698 17.8664 36.4967 19.1688 37.1152C19.7047 37.3697 20.3456 37.1416 20.6002 36.6055C20.8547 36.0695 20.6265 35.4287 20.0905 35.1742C18.5019 34.4198 16.7328 34.0211 14.9744 34.0211C13.2567 34.0211 11.5246 34.4025 9.96547 35.124L7.11667 36.4424C6.47615 36.7388 5.8019 36.9662 5.11261 37.1179C4.58071 37.235 4.21265 37.7513 4.27678 38.2923C4.34017 38.8257 4.80471 39.2416 5.34273 39.2416Z" fill="black" fill-opacity="0.15"/>
<path d="M54.5868 6.67134C55.372 5.01118 55.0139 2.98295 53.7191 1.6858C52.4392 0.406062 50.4398 0.040038 48.7909 0.791639C47.8697 1.21159 47.1737 1.99349 46.4803 2.70932L38.8832 10.3063C38.4322 10.0976 37.9815 9.88799 37.5301 9.68021C36.3457 9.1351 35.0749 8.78369 33.7784 8.64445C31.1483 8.36201 28.4573 8.98158 26.2117 10.3787C25.2989 10.9466 24.514 11.651 23.7463 12.3967L23.2875 11.9507C21.049 9.77465 18.0968 8.57613 14.9748 8.57613C13.2568 8.57613 11.5248 8.95751 9.96581 9.67903L7.11711 10.9974C5.83898 11.589 4.41893 11.9016 3.01059 11.9016H1.07433C0.480978 11.9016 0 12.3826 0 12.9759V47.2869C0 47.7953 0.353455 48.2202 0.827879 48.3317V51.1126C0.827879 51.706 1.30886 52.1869 1.90221 52.1869H18.1658C18.8588 52.1869 19.5196 52.464 20.0264 52.9669C21.0999 54.0323 22.3862 54.5954 23.7465 54.5954C25.1066 54.5954 26.393 54.0322 27.4664 52.9669C27.9734 52.4639 28.6341 52.1868 29.3271 52.1868H45.5908C45.8758 52.1868 46.1491 52.0736 46.3506 51.872C46.552 51.6705 46.6652 51.3972 46.6651 51.1122L46.6643 48.3317C47.1391 48.2205 47.493 47.7954 47.493 47.2867V39.7749C47.493 39.1815 47.012 38.7006 46.4187 38.7006C45.8253 38.7006 45.3444 39.1815 45.3444 39.7749V46.2097C43.7217 46.1782 41.8669 45.998 40.3761 45.309C39.5322 44.9182 38.6884 44.5275 37.8446 44.1368C36.1589 43.3563 34.3853 42.8874 32.5175 42.8874C29.714 42.8874 26.9604 43.8899 24.8207 45.703V14.3485C25.1147 14.0627 25.4082 13.7764 25.7029 13.4913C26.4601 12.7586 27.3285 12.1477 28.2788 11.6917C30.3191 10.7125 32.6641 10.4704 34.8615 11.0118C35.7029 11.2192 36.4817 11.5628 37.2642 11.9249L30.2803 18.9088C30.1463 19.0428 30.0502 19.2097 30.0016 19.3928L28.3047 25.7847C28.0969 26.5672 28.8365 27.3069 29.6193 27.0992L36.0118 25.4022C36.1915 25.3545 36.366 25.2575 36.4957 25.1235L45.3442 16.2756V30.0301C45.3442 30.6234 45.8252 31.1044 46.4186 31.1044C47.0119 31.1044 47.4929 30.6234 47.4929 30.0301V14.1262L52.6897 8.92947C53.3887 8.24416 54.1616 7.56959 54.5868 6.67134ZM3.0107 14.0503C4.72845 14.0503 6.46048 13.6689 8.01966 12.9474L10.8685 11.6289C12.1465 11.0374 13.5665 10.7248 14.9749 10.7248C17.5344 10.7248 19.9547 11.7074 21.79 13.4913L22.6717 14.3482V45.7025C20.5321 43.8939 17.7763 42.887 14.9749 42.887C13.744 42.887 12.5062 43.0838 11.3295 43.4603C9.89243 43.9198 8.54823 44.662 7.17534 45.2814C5.64227 45.973 3.81258 46.1749 2.14866 46.2094V14.0503H3.0107ZM34.6204 45.2647C35.3124 45.4174 35.9869 45.6445 36.6249 45.9398L39.4739 47.259C41.0197 47.9737 42.8322 48.205 44.5156 48.3203L44.5161 50.0385H29.3271C28.0634 50.0385 26.8651 50.537 25.953 51.442C25.281 52.1088 24.5387 52.4469 23.7465 52.4469C22.9542 52.4469 22.2119 52.1088 21.5399 51.442C20.6278 50.537 19.4296 50.0385 18.1658 50.0385H2.97654V48.3203C4.70138 48.1984 6.5012 47.9461 8.08852 47.2269C9.01846 46.8055 9.94196 46.3689 10.8685 45.94C12.0632 45.3871 13.382 45.078 14.6992 45.04C17.3213 44.9678 19.9089 45.9738 21.79 47.8025L22.7944 48.7788C22.9633 48.9431 23.124 49.1147 23.3478 49.2037C23.7371 49.3588 24.1942 49.2683 24.4946 48.9763L25.7028 47.8025C27.3095 46.2416 29.3633 45.2943 31.5656 45.0817C32.585 44.9834 33.6202 45.044 34.6204 45.2647ZM35.7362 22.8444L32.56 19.6683L47.2437 4.98464L50.4198 8.1609L35.7362 22.8444ZM30.8571 24.5471L31.6003 21.7473L33.657 23.804L30.8571 24.5471ZM48.763 3.46532L49.0229 3.20544C49.8985 2.32976 51.3235 2.32976 52.1991 3.20544C53.0748 4.08113 53.0748 5.50591 52.1991 6.38159L51.9391 6.64158L48.763 3.46532Z" fill="black" fill-opacity="0.15"/>
<path d="M47.3121 34.1117C46.985 33.6251 46.3104 33.4913 45.822 33.8152C45.3335 34.1392 45.2027 34.8176 45.5255 35.3042C45.8495 35.7927 46.5281 35.9235 47.0145 35.6007C47.5019 35.277 47.6365 34.5979 47.3121 34.1117Z" fill="black" fill-opacity="0.15"/>
</g>
<defs>
<clipPath id="clip0">
<rect width="55" height="55" fill="white"/>
</clipPath>
</defs>
</svg>
