<svg width="53" height="53" viewBox="0 0 53 53" fill="none" xmlns="http://www.w3.org/2000/svg">
<g clip-path="url(#clip0)">
<path d="M53 22.9667C52.9859 10.2884 42.7116 0.0141333 30.0333 0H22.9667C10.2884 0.0141333 0.0141333 10.2884 0 22.9667C0.00287083 25.4047 1.97867 27.3805 4.41667 27.3833H9.78027C10.2233 30.4233 12.8279 32.679 15.9 32.6833H17.3946C18.3712 32.6832 19.3471 32.6243 20.3167 32.5067V32.6233C20.334 36.6403 23.2838 40.042 27.2579 40.628C30.3628 41.0847 32.6683 43.7411 32.6833 46.8794V52.1167C32.6833 52.6045 33.0788 53 33.5667 53H37.9833C38.4712 53 38.8667 52.6045 38.8667 52.1167V35.1311L41.1801 36.7263C42.3695 37.5475 43.7813 37.9861 45.2267 37.9833H45.232C48.6262 37.9747 51.5463 35.58 52.2191 32.2532L52.6184 30.2586C52.833 29.1448 52.777 27.9957 52.455 26.9081C52.8112 26.2607 52.9987 25.5341 53 24.7952V22.9667ZM37.1 51.2333H34.45V46.8794C34.4327 42.8623 31.4829 39.4606 27.5088 38.8746C24.403 38.4178 22.0971 35.7599 22.0833 32.6206V32.2178C24.2638 31.7944 26.3771 31.078 28.3656 30.0881C30.5568 28.9985 32.9098 28.2701 35.3333 27.931V31.3071C35.3328 32.213 35.7961 33.056 36.5612 33.541L37.1 33.9129V51.2333ZM50.8835 29.9132L50.6857 30.9167H44.1667V32.6833H50.2617C49.4902 34.8002 47.4798 36.211 45.2267 36.2167C44.1402 36.2179 43.0792 35.8875 42.1853 35.2697L38.425 32.6833H42.4V30.9167H37.1V30.0333H40.6333V28.2667H37.1V27.7535C39.1452 27.6181 41.1995 27.7607 43.2065 28.1775L47.6735 29.1173C48.81 29.3576 49.9953 29.1394 50.9719 28.5105C51.0057 28.9798 50.976 29.4518 50.8835 29.9132ZM51.2333 24.7952C51.2336 26.2587 50.0472 27.4453 48.5837 27.4455C48.4002 27.4455 48.2171 27.4265 48.0374 27.3886L45.05 26.7597V25.6167C45.05 23.6653 43.4681 22.0833 41.5167 22.0833H40.6333C39.6576 22.0833 38.8667 21.2924 38.8667 20.3167V19.4333C38.8667 18.4576 39.6576 17.6667 40.6333 17.6667C42.5847 17.6667 44.1667 16.0847 44.1667 14.1333V13.25C44.1667 11.2986 42.5847 9.71667 40.6333 9.71667H36.2167V11.4833H40.6333C41.6091 11.4833 42.4 12.2742 42.4 13.25V14.1333C42.4 15.1091 41.6091 15.9 40.6333 15.9C38.6819 15.9 37.1 17.4819 37.1 19.4333V20.3167C37.1 22.2681 38.6819 23.85 40.6333 23.85H41.5167C42.4924 23.85 43.2833 24.6409 43.2833 25.6167V26.4002C38.5368 25.4673 33.6205 25.9552 29.15 27.8029V26.5C29.15 24.5486 30.7319 22.9667 32.6833 22.9667H33.5667V21.2H32.6833C29.7576 21.2034 27.3868 23.5743 27.3833 26.5V28.597C24.6225 29.945 21.6181 30.7222 18.55 30.8822V28.2667C18.55 27.7788 18.9455 27.3833 19.4333 27.3833H22.0833C23.5469 27.3833 24.7333 26.1969 24.7333 24.7333V21.2H22.9667V24.7333C22.9667 25.2212 22.5712 25.6167 22.0833 25.6167H19.4333C17.9698 25.6167 16.7833 26.8031 16.7833 28.2667V30.9167H15.9C13.462 30.9138 11.4862 28.938 11.4833 26.5C11.4862 24.062 13.462 22.0862 15.9 22.0833H18.55V20.3167H15.9C12.8275 20.3205 10.2225 22.5763 9.77938 25.6167H6.18333V22.0833C6.18333 20.1319 7.76527 18.55 9.71667 18.55C12.6424 18.5466 15.0132 16.1757 15.0167 13.25V9.71667H13.25V13.25C13.25 15.2014 11.6681 16.7833 9.71667 16.7833C6.79096 16.7868 4.42009 19.1576 4.41667 22.0833V25.6167C2.95309 25.6167 1.76667 24.4302 1.76667 22.9667C1.77981 11.2637 11.2637 1.77981 22.9667 1.76667V2.65C22.9667 4.60139 24.5486 6.18333 26.5 6.18333H27.3833C28.3591 6.18333 29.15 6.97425 29.15 7.95V8.83333C29.15 9.80908 28.3591 10.6 27.3833 10.6C25.4319 10.6 23.85 12.1819 23.85 14.1333V15.0167C23.85 16.9681 25.4319 18.55 27.3833 18.55H31.8V16.7833H27.3833C26.4076 16.7833 25.6167 15.9924 25.6167 15.0167V14.1333C25.6167 13.1576 26.4076 12.3667 27.3833 12.3667C29.3347 12.3667 30.9167 10.7847 30.9167 8.83333V7.95C30.9167 5.99861 29.3347 4.41667 27.3833 4.41667H26.5C25.5242 4.41667 24.7333 3.62575 24.7333 2.65V1.76667H30.0333C33.2813 1.76413 36.4859 2.51264 39.3967 3.9538C38.9294 4.78336 38.0521 5.29757 37.1 5.3H34.45V7.06667H37.1C38.6983 7.0638 40.1695 6.19526 40.9443 4.79738C46.5083 8.14632 50.2337 13.8573 51.0567 20.299C49.1814 20.2051 47.7071 18.661 47.7 16.7833H45.9333C45.9362 19.7007 48.2939 22.0683 51.2112 22.0833C51.2236 22.3766 51.2333 22.6707 51.2333 22.9667V24.7952Z" fill="black" fill-opacity="0.15"/>
<path d="M45.9332 33.5667H43.2832V35.3333H45.9332V33.5667Z" fill="black" fill-opacity="0.15"/>
<path d="M15.0163 5.30005C11.6014 5.30005 8.83301 8.06842 8.83301 11.4834H10.5997C10.5997 9.04417 12.5771 7.06672 15.0163 7.06672C17.4556 7.06672 19.433 9.04417 19.433 11.4834V13.2501H21.1997V11.4834C21.1997 8.06842 18.4313 5.30005 15.0163 5.30005Z" fill="black" fill-opacity="0.15"/>
<path d="M16.7833 36.2167H15.0166V37.9833H16.7833V36.2167Z" fill="black" fill-opacity="0.15"/>
<path d="M15.0167 34.45H13.25V36.2166H15.0167V34.45Z" fill="black" fill-opacity="0.15"/>
<path d="M13.2501 36.2167H11.4834V37.9833H13.2501V36.2167Z" fill="black" fill-opacity="0.15"/>
<path d="M15.0167 37.9833H13.25V39.7499H15.0167V37.9833Z" fill="black" fill-opacity="0.15"/>
<path d="M9.71686 36.2167H7.9502V37.9833H9.71686V36.2167Z" fill="black" fill-opacity="0.15"/>
<path d="M1.76667 45.05H0V46.8167H1.76667V45.05Z" fill="black" fill-opacity="0.15"/>
<path d="M3.53327 43.2833H1.7666V45.05H3.53327V43.2833Z" fill="black" fill-opacity="0.15"/>
<path d="M5.29987 45.05H3.5332V46.8167H5.29987V45.05Z" fill="black" fill-opacity="0.15"/>
<path d="M3.53327 46.8167H1.7666V48.5833H3.53327V46.8167Z" fill="black" fill-opacity="0.15"/>
<path d="M8.83307 45.05H7.06641V46.8167H8.83307V45.05Z" fill="black" fill-opacity="0.15"/>
<path d="M14.1329 50.35H12.3662V52.1166H14.1329V50.35Z" fill="black" fill-opacity="0.15"/>
<path d="M23.8497 42.4H22.083V44.1667H23.8497V42.4Z" fill="black" fill-opacity="0.15"/>
<path d="M3.53327 29.15H1.7666V30.9167H3.53327V29.15Z" fill="black" fill-opacity="0.15"/>
<path d="M28.2667 48.5834H26.5V50.35H28.2667V48.5834Z" fill="black" fill-opacity="0.15"/>
<path d="M45.9337 49.4667H44.167V51.2333H45.9337V49.4667Z" fill="black" fill-opacity="0.15"/>
<path d="M47.7003 47.7H45.9336V49.4666H47.7003V47.7Z" fill="black" fill-opacity="0.15"/>
<path d="M49.4669 49.4667H47.7002V51.2333H49.4669V49.4667Z" fill="black" fill-opacity="0.15"/>
<path d="M47.7003 51.2333H45.9336V52.9999H47.7003V51.2333Z" fill="black" fill-opacity="0.15"/>
<path d="M53.0001 49.4667H51.2334V51.2333H53.0001V49.4667Z" fill="black" fill-opacity="0.15"/>
<path d="M42.4005 39.75H40.6338V41.5167H42.4005V39.75Z" fill="black" fill-opacity="0.15"/>
<path d="M47.7003 42.4H45.9336V44.1667H47.7003V42.4Z" fill="black" fill-opacity="0.15"/>
</g>
<defs>
<clipPath id="clip0">
<rect width="53" height="53" fill="white"/>
</clipPath>
</defs>
</svg>
