<svg width="53" height="53" viewBox="0 0 53 53" fill="none" xmlns="http://www.w3.org/2000/svg">
<path d="M26.4996 24.1709C26.3543 24.1709 26.2123 24.185 26.0743 24.2106L18.9683 11.9029C18.7541 11.5315 18.279 11.4043 17.9078 11.6186C17.5365 11.833 17.4093 12.3078 17.6237 12.6791L24.7302 24.988C24.3817 25.3952 24.1705 25.9232 24.1705 26.4999C24.1705 27.512 24.8197 28.375 25.7233 28.6955V46.0127C25.7233 46.4416 26.0708 46.7891 26.4996 46.7891C26.9285 46.7891 27.276 46.4416 27.276 46.0127V28.6956C28.1796 28.3751 28.8287 27.5121 28.8287 26.5C28.8287 25.2158 27.7838 24.1709 26.4996 24.1709ZM26.4996 27.2764C26.0715 27.2764 25.7233 26.9282 25.7233 26.5C25.7233 26.0719 26.0715 25.7237 26.4996 25.7237C26.9278 25.7237 27.276 26.0719 27.276 26.5C27.276 26.9282 26.9278 27.2764 26.4996 27.2764Z" fill="black" fill-opacity="0.15"/>
<path d="M45.2384 7.7616C40.2332 2.75652 33.5784 0 26.5 0C19.4216 0 12.7668 2.75652 7.7616 7.7616C2.75641 12.7667 0 19.4216 0 26.5C0 33.5784 2.75652 40.2332 7.7616 45.2384C12.7667 50.2436 19.4216 53 26.5 53C33.5784 53 40.2332 50.2435 45.2384 45.2384C50.2436 40.2333 53 33.5784 53 26.5C53 19.4216 50.2435 12.7668 45.2384 7.7616ZM26.5 51.4473C12.744 51.4473 1.55273 40.256 1.55273 26.5C1.55273 12.744 12.744 1.55273 26.5 1.55273C40.256 1.55273 51.4473 12.744 51.4473 26.5C51.4473 40.256 40.256 51.4473 26.5 51.4473Z" fill="black" fill-opacity="0.15"/>
<path d="M26.5 7.76367C26.9288 7.76367 27.2764 7.41608 27.2764 6.9873C27.2764 6.55853 26.9288 6.21094 26.5 6.21094C26.0712 6.21094 25.7236 6.55853 25.7236 6.9873C25.7236 7.41608 26.0712 7.76367 26.5 7.76367Z" fill="black" fill-opacity="0.15"/>
<path d="M16.7432 10.3774C17.1719 10.3774 17.5195 10.0299 17.5195 9.60107C17.5195 9.1723 17.1719 8.82471 16.7432 8.82471C16.3144 8.82471 15.9668 9.1723 15.9668 9.60107C15.9668 10.0299 16.3144 10.3774 16.7432 10.3774Z" fill="black" fill-opacity="0.15"/>
<path d="M9.60059 17.52C10.0294 17.52 10.377 17.1724 10.377 16.7437C10.377 16.3149 10.0294 15.9673 9.60059 15.9673C9.17181 15.9673 8.82422 16.3149 8.82422 16.7437C8.82422 17.1724 9.17181 17.52 9.60059 17.52Z" fill="black" fill-opacity="0.15"/>
<path d="M6.9873 27.2764C7.41608 27.2764 7.76367 26.9288 7.76367 26.5C7.76367 26.0712 7.41608 25.7236 6.9873 25.7236C6.55853 25.7236 6.21094 26.0712 6.21094 26.5C6.21094 26.9288 6.55853 27.2764 6.9873 27.2764Z" fill="black" fill-opacity="0.15"/>
<path d="M9.60059 37.0327C10.0294 37.0327 10.377 36.6851 10.377 36.2563C10.377 35.8276 10.0294 35.48 9.60059 35.48C9.17181 35.48 8.82422 35.8276 8.82422 36.2563C8.82422 36.6851 9.17181 37.0327 9.60059 37.0327Z" fill="black" fill-opacity="0.15"/>
<path d="M16.7432 44.1753C17.1719 44.1753 17.5195 43.8277 17.5195 43.3989C17.5195 42.9702 17.1719 42.6226 16.7432 42.6226C16.3144 42.6226 15.9668 42.9702 15.9668 43.3989C15.9668 43.8277 16.3144 44.1753 16.7432 44.1753Z" fill="black" fill-opacity="0.15"/>
<path d="M36.2568 44.1753C36.6856 44.1753 37.0332 43.8277 37.0332 43.3989C37.0332 42.9702 36.6856 42.6226 36.2568 42.6226C35.8281 42.6226 35.4805 42.9702 35.4805 43.3989C35.4805 43.8277 35.8281 44.1753 36.2568 44.1753Z" fill="black" fill-opacity="0.15"/>
<path d="M43.3994 37.0327C43.8282 37.0327 44.1758 36.6851 44.1758 36.2563C44.1758 35.8276 43.8282 35.48 43.3994 35.48C42.9706 35.48 42.623 35.8276 42.623 36.2563C42.623 36.6851 42.9706 37.0327 43.3994 37.0327Z" fill="black" fill-opacity="0.15"/>
<path d="M46.0127 27.2764C46.4415 27.2764 46.7891 26.9288 46.7891 26.5C46.7891 26.0712 46.4415 25.7236 46.0127 25.7236C45.5839 25.7236 45.2363 26.0712 45.2363 26.5C45.2363 26.9288 45.5839 27.2764 46.0127 27.2764Z" fill="black" fill-opacity="0.15"/>
<path d="M43.3994 17.52C43.8282 17.52 44.1758 17.1724 44.1758 16.7437C44.1758 16.3149 43.8282 15.9673 43.3994 15.9673C42.9706 15.9673 42.623 16.3149 42.623 16.7437C42.623 17.1724 42.9706 17.52 43.3994 17.52Z" fill="black" fill-opacity="0.15"/>
<path d="M36.2568 10.3774C36.6856 10.3774 37.0332 10.0299 37.0332 9.60107C37.0332 9.1723 36.6856 8.82471 36.2568 8.82471C35.8281 8.82471 35.4805 9.1723 35.4805 9.60107C35.4805 10.0299 35.8281 10.3774 36.2568 10.3774Z" fill="black" fill-opacity="0.15"/>
<path d="M43.0424 9.95758C38.6237 5.53891 32.7488 3.10547 26.5 3.10547C20.8469 3.10547 15.3892 5.14969 11.1323 8.86135C10.8091 9.14322 10.7756 9.63358 11.0572 9.95675C11.3391 10.28 11.8296 10.3135 12.1526 10.0317C16.1268 6.56662 21.222 4.6582 26.5 4.6582C38.5436 4.6582 48.3418 14.4564 48.3418 26.5C48.3418 38.5436 38.5436 48.3418 26.5 48.3418C14.4564 48.3418 4.6582 38.5436 4.6582 26.5C4.6582 21.222 6.56662 16.1268 10.0317 12.1526C10.3136 11.8295 10.2799 11.3391 9.95675 11.0572C9.63378 10.7755 9.14333 10.8089 8.86135 11.1323C5.14969 15.3892 3.10547 20.8469 3.10547 26.5C3.10547 32.7488 5.53891 38.6237 9.95758 43.0424C14.3763 47.4611 20.2512 49.8945 26.5 49.8945C32.7488 49.8945 38.6237 47.4611 43.0424 43.0424C47.4611 38.6237 49.8945 32.7488 49.8945 26.5C49.8945 20.2512 47.4611 14.3763 43.0424 9.95758Z" fill="black" fill-opacity="0.15"/>
</svg>
